<svg width="628.121094" height="1280.000000" viewBox="0 0 628.121 1280" fill="none" xmlns="http://www.w3.org/2000/svg" xmlns:xlink="http://www.w3.org/1999/xlink">
	<desc>
			Created with Pixso.
	</desc>
	<defs/>
	<path id="Union" d="M543.246 754.969C455.414 613.281 411.281 528.506 479 308C479.09 307.714 479.121 307.393 479.105 307.038C496.836 276.799 507 241.587 507 204C507 91.334 415.668 0 303 0C190.332 0 99 91.334 99 204C99 225.126 102.211 245.502 108.172 264.666C108.441 265.77 108.719 266.882 109 268.002C110.523 274.034 112.023 279.967 113.504 285.807C161.051 473.521 184.238 565.064 57.8711 785.637C21.4297 836.803 0 899.399 0 967C0 1139.87 140.137 1280 313 1280C485.867 1280 626 1139.87 626 967C626 960.768 625.816 954.577 625.457 948.435C631.938 924.246 626.918 894.587 606.832 858.905C592.539 820.06 570.758 784.831 543.246 754.969Z" clip-rule="evenodd" fill="#E9F7FF" fill-opacity="1.000000" fill-rule="evenodd"/>
</svg>
