<svg width="18" height="14" viewBox="0 0 18 14" fill="none" xmlns="http://www.w3.org/2000/svg">
<path fill-rule="evenodd" clip-rule="evenodd" d="M0.0132028 4.15134C-3.38676e-10 4.69026 0 5.3021 0 6.00005V8.00005C0 10.8285 0 12.2427 0.87868 13.1214C1.75736 14 3.17157 14 6 14H12C14.8284 14 16.2426 14 17.1213 13.1214C18 12.2427 18 10.8285 18 8.00005V6.00005C18 5.3021 18 4.69026 17.9868 4.15134L9.97129 8.6044C9.36724 8.93998 8.63276 8.93998 8.02871 8.6044L0.0132028 4.15134ZM0.242967 2.02976C0.325845 2.05056 0.407399 2.08242 0.485643 2.12589L9 6.85609L17.5144 2.12589C17.5926 2.08242 17.6742 2.05057 17.757 2.02976C17.6271 1.55624 17.4276 1.18496 17.1213 0.878725C16.2426 4.57764e-05 14.8284 4.57764e-05 12 4.57764e-05H6C3.17157 4.57764e-05 1.75736 4.57764e-05 0.87868 0.878725C0.572448 1.18496 0.372942 1.55624 0.242967 2.02976Z" fill="#01A3DE"/>
</svg>
