<svg width="18" height="18" viewBox="0 0 18 18" fill="none" xmlns="http://www.w3.org/2000/svg">
<path fill-rule="evenodd" clip-rule="evenodd" d="M9 18C13.9706 18 18 13.9706 18 9.00005C18 4.02948 13.9706 4.57764e-05 9 4.57764e-05C4.02944 4.57764e-05 0 4.02948 0 9.00005C0 13.9706 4.02944 18 9 18ZM10 3.50005C10 2.94776 9.55229 2.50005 9 2.50005C8.44771 2.50005 8 2.94776 8 3.50005V8.75005C8 9.4404 8.55964 10 9.25 10H12.5C13.0523 10 13.5 9.55233 13.5 9.00005C13.5 8.44776 13.0523 8.00005 12.5 8.00005H10V3.50005Z" fill="#01A3DE"/>
</svg>
