<svg width="50.011719" height="34.375000" viewBox="0 0 50.0117 34.375" fill="none" xmlns="http://www.w3.org/2000/svg" xmlns:xlink="http://www.w3.org/1999/xlink">
	<desc>
			Created with Pixso.
	</desc>
	<defs/>
	<path id="Vector" d="M16.3086 34.375C16.125 34.3164 15.9375 34.2676 15.7539 34.209C14.5625 33.8477 13.7812 32.9004 13.6523 31.6602C13.6445 31.5332 13.625 31.4062 13.6055 31.2305C12.7266 31.2305 11.8672 31.2305 11.0078 31.2305C9.49219 31.2305 8.98438 30.5957 9.375 29.1406C9.80469 27.5098 10.2344 25.8691 10.7031 24.248C10.7812 23.9844 10.9961 23.6914 11.2305 23.5645C11.3984 23.4766 11.7969 23.5645 11.9258 23.7109C12.082 23.8965 12.1797 24.248 12.1211 24.4922C11.7383 26.0547 11.3086 27.6074 10.8984 29.1602C10.8516 29.3457 10.8008 29.5312 10.7422 29.7656C11.7773 29.7656 12.7656 29.7754 13.75 29.7461C13.8672 29.7461 14.0234 29.5605 14.1016 29.4238C14.7969 28.1543 15.8008 27.2656 17.1875 26.8262C19.1211 26.2109 21.4375 26.9824 21.6133 29.7266C25.293 29.7266 28.9766 29.7266 32.7148 29.7266C34.3867 23.4766 36.0664 17.2168 37.7656 10.8789C37.5312 10.8691 37.3555 10.8496 37.1875 10.8496C35.8008 10.8496 34.4258 10.8496 33.0391 10.8496C32.4336 10.8496 32.1289 10.6152 32.1211 10.1465C32.1094 9.66797 32.4336 9.39453 33.0469 9.38477C34.5625 9.375 36.0742 9.38477 37.5898 9.38477C38.7617 9.38477 39.1719 9.74609 39.3086 10.957C39.4727 10.957 39.6484 10.957 39.8242 10.957C41.4375 10.957 43.0469 10.957 44.6602 10.957C46.1719 10.957 46.875 11.6602 46.8867 13.1543C46.8945 15.2734 46.9062 17.3828 46.8945 19.502C46.8945 19.8145 46.9922 20.0098 47.2461 20.1855C47.7852 20.5469 48.3008 20.957 48.8398 21.3086C49.3945 21.6699 49.8164 22.1094 50.0117 22.7441C50.0117 23.0078 50.0117 23.2617 50.0117 23.5254C49.9727 23.6328 49.9336 23.7402 49.9023 23.8477C49.4453 25.5566 48.9961 27.2656 48.5273 28.9746C48.1758 30.2832 47.1992 31.084 45.8398 31.2402C45.6758 31.2598 45.4688 31.4062 45.3906 31.5527C44.9141 32.4121 44.3086 33.1543 43.4375 33.6133C42.832 33.9355 42.1484 34.1211 41.5039 34.3652C41.1836 34.3652 40.8516 34.3652 40.5273 34.3652C40.4414 34.3359 40.3516 34.2871 40.2656 34.2676C38.9648 33.9355 38.1836 33.1348 37.9414 31.8066C37.9102 31.6211 37.8828 31.4355 37.8633 31.2598C37.793 31.2402 37.7656 31.2305 37.7266 31.2305C32.3438 31.2305 26.9531 31.2207 21.5742 31.2402C21.418 31.2402 21.2031 31.4062 21.1133 31.5527C20.4414 32.793 19.4531 33.6621 18.1172 34.1211C17.8438 34.2188 17.5586 34.2871 17.2852 34.3652C16.9648 34.375 16.6328 34.375 16.3086 34.375ZM48.0664 25.0098C47.8047 24.9902 47.5781 24.9902 47.3633 24.9414C46.9531 24.8633 46.7305 24.5996 46.7578 24.1895C46.7891 23.7695 47.0312 23.5449 47.4531 23.5156C47.6758 23.5059 47.9102 23.5156 48.1367 23.5059C48.4883 23.4961 48.6523 23.2715 48.5078 22.9785C48.4375 22.8418 48.293 22.7344 48.1641 22.6367C47.5508 22.1875 46.9336 21.7285 46.3008 21.3086C46.0742 21.1621 45.7734 21.0645 45.5 21.0547C43.957 21.0352 42.4023 21.0547 40.8594 21.0449C39.3164 21.0352 38.4961 19.9805 38.8672 18.4863C39.0234 17.8711 39.1914 17.2656 39.3555 16.6504C39.8359 14.834 40.793 14.1016 42.6875 14.1016C43.5742 14.1016 44.4648 14.1016 45.4102 14.1016C45.4102 13.7793 45.4102 13.5059 45.4102 13.2324C45.4102 12.5 45.3438 12.4316 44.6016 12.4316C42.8438 12.4316 41.0859 12.4414 39.3281 12.4219C38.9648 12.4219 38.8281 12.5391 38.7422 12.8906C37.8438 16.2988 36.9258 19.707 36.0156 23.1055C35.9883 23.2227 35.9766 23.3398 35.9492 23.5059C36.1914 23.5059 36.3867 23.5059 36.582 23.5059C39.1211 23.5059 41.6602 23.5059 44.1992 23.5059C44.7578 23.5059 45.0586 23.7598 45.0703 24.209C45.0781 24.6582 44.7773 24.9316 44.2383 24.9609C44.1133 24.9707 43.9766 24.9609 43.8477 24.9609C41.2305 24.9609 38.6055 24.9707 35.9883 24.9512C35.6367 24.9512 35.4805 25.0391 35.3906 25.4004C35.0586 26.7285 34.6992 28.0371 34.3477 29.3555C34.3164 29.4727 34.3164 29.5996 34.2969 29.7559C35.5 29.7559 36.6523 29.7461 37.8047 29.7656C38.125 29.7754 38.2812 29.6582 38.4297 29.375C39.1797 27.9688 40.332 27.0312 41.9141 26.709C44.375 26.2012 45.8516 27.8418 45.8594 29.502C45.8594 29.5703 45.9102 29.6387 45.9375 29.707C46.5234 29.5703 46.9258 29.2676 47.0703 28.7793C47.3945 27.5586 47.7148 26.2988 48.0664 25.0098ZM45.3906 15.5957C44.2383 15.5957 43.125 15.5566 42.0039 15.6152C41.4375 15.6445 41.0547 16.0352 40.8906 16.5723C40.6562 17.3438 40.4414 18.1348 40.2461 18.916C40.1289 19.3945 40.2852 19.5801 40.793 19.5898C41.4258 19.5996 42.0625 19.5898 42.6875 19.5898C43.5742 19.5898 44.4648 19.5898 45.3828 19.5898C45.3906 18.2422 45.3906 16.9531 45.3906 15.5957ZM18.457 28.1055C16.9844 28.0957 15.3906 29.4141 15.1367 30.8594C14.9141 32.1289 15.6953 32.998 16.9453 32.8906C18.3984 32.7637 19.7969 31.5137 20.0781 30.0781C20.3047 28.9453 19.6094 28.1152 18.457 28.1055ZM44.375 29.7461C44.4062 28.7891 43.8008 28.1445 42.832 28.1152C41.2422 28.0566 39.582 29.4727 39.375 31.0547C39.25 32.0703 39.8828 32.832 40.918 32.9004C42.5312 32.998 44.3281 31.3574 44.375 29.7461Z" fill="#01A3DE" fill-opacity="1.000000" fill-rule="nonzero"/>
	<path id="Vector" d="M19.5312 0C20.2148 0.126953 20.9102 0.214844 21.5938 0.380859C27.0039 1.68945 30.793 6.875 30.4023 12.4219C30 18.1055 25.7734 22.5977 20.1367 23.3203C13.7227 24.1406 7.6875 19.3066 7.12109 12.8809C6.55469 6.54297 10.8398 1.07422 17.1094 0.126953C17.3633 0.0878906 17.6172 0.0488281 17.8711 0C18.4297 0 18.9766 0 19.5312 0ZM18.75 21.9434C24.375 21.9238 28.9766 17.3242 28.9648 11.709C28.9648 6.05469 24.3477 1.46484 18.7031 1.47461C13.0859 1.49414 8.49609 6.11328 8.50781 11.7285C8.51562 17.3535 13.1445 21.9531 18.75 21.9434Z" fill="#01A3DE" fill-opacity="1.000000" fill-rule="nonzero"/>
	<path id="Vector" d="M0 21.582C0.285156 21.25 0.632812 21.1523 1.0625 21.1523C3.45703 21.1719 5.85156 21.1621 8.24219 21.1621C8.39062 21.1621 8.53516 21.1523 8.67969 21.1816C9.05469 21.2402 9.25781 21.4746 9.27734 21.8457C9.29688 22.2168 9.12109 22.4707 8.75781 22.5781C8.59375 22.627 8.41016 22.627 8.23438 22.627C5.83984 22.627 3.44531 22.627 1.05469 22.6367C0.617188 22.6367 0.265625 22.5293 0 22.1777C0 21.9727 0 21.7773 0 21.582Z" fill="#01A3DE" fill-opacity="1.000000" fill-rule="nonzero"/>
	<path id="Vector" d="M5.42188 24.2969C6.17188 24.2969 6.91406 24.2871 7.66797 24.2969C8.18359 24.3066 8.48828 24.5605 8.49609 24.9902C8.51562 25.4395 8.20312 25.752 7.67578 25.7617C6.18359 25.7715 4.67969 25.7715 3.18359 25.7617C2.65625 25.7617 2.33594 25.4492 2.34375 25.0098C2.35547 24.5801 2.67578 24.3066 3.21484 24.3066C3.95703 24.2871 4.6875 24.2969 5.42188 24.2969Z" fill="#01A3DE" fill-opacity="1.000000" fill-rule="nonzero"/>
	<path id="Vector" d="M6.26953 27.4316C6.53516 27.4316 6.78906 27.4121 7.05078 27.4316C7.44141 27.4609 7.67578 27.6953 7.71484 28.0762C7.75391 28.4668 7.55859 28.7891 7.17969 28.8281C6.55469 28.8867 5.91797 28.8867 5.28516 28.8379C4.90234 28.8086 4.6875 28.4961 4.70703 28.1152C4.72656 27.7148 4.97266 27.4512 5.39062 27.4316C5.68359 27.4121 5.97656 27.4316 6.26953 27.4316Z" fill="#01A3DE" fill-opacity="1.000000" fill-rule="nonzero"/>
	<path id="Vector" d="M18.3398 30.4883C18.3477 30.8887 17.9883 31.2402 17.5977 31.2305C17.207 31.2207 16.8945 30.8984 16.8828 30.5078C16.875 30.1074 17.168 29.7949 17.5664 29.7754C17.9883 29.7559 18.3281 30.0781 18.3398 30.4883Z" fill="#01A3DE" fill-opacity="1.000000" fill-rule="nonzero"/>
	<path id="Vector" d="M41.875 31.2305C41.4766 31.2305 41.125 30.8789 41.1328 30.4785C41.1445 30.0879 41.4648 29.7754 41.8555 29.7754C42.2578 29.7754 42.5703 30.0684 42.5781 30.4688C42.6094 30.8789 42.2852 31.2207 41.875 31.2305Z" fill="#01A3DE" fill-opacity="1.000000" fill-rule="nonzero"/>
	<path id="Vector" d="M18.6602 13.9941C18.5742 13.9844 18.4258 14.0137 18.3203 13.9551C17.7812 13.6621 17.4688 13.9551 17.1367 14.3262C16.8359 14.668 16.5039 14.9805 16.1719 15.293C15.8203 15.625 15.3789 15.6348 15.0859 15.3418C14.7734 15.0293 14.793 14.6289 15.1445 14.2578C15.5664 13.8281 16.0039 13.418 16.4062 12.9688C16.5117 12.8418 16.5898 12.5879 16.543 12.4414C16.2891 11.5527 16.4453 10.752 17.0898 10.0977C17.7539 9.42383 18.5547 9.26758 19.4727 9.52148C19.6367 9.57031 19.9102 9.46289 20.0391 9.3457C21.2109 8.20312 22.3633 7.02148 23.5352 5.87891C23.6992 5.71289 23.9453 5.52734 24.1406 5.52734C24.375 5.53711 24.6758 5.69336 24.8125 5.88867C25.0273 6.17188 24.9492 6.51367 24.6875 6.77734C24.1211 7.35352 23.543 7.92969 22.9688 8.50586C22.3438 9.13086 21.7383 9.75586 21.1016 10.3613C20.8867 10.5664 20.8008 10.7422 20.9062 11.0645C21.3867 12.5391 20.2539 14.0137 18.6602 13.9941ZM19.5508 11.7188C19.5586 11.25 19.1875 10.8789 18.7305 10.8789C18.2812 10.8789 17.8906 11.2695 17.8984 11.7188C17.9102 12.1582 18.2617 12.5098 18.7109 12.5293C19.1875 12.5391 19.5508 12.1875 19.5508 11.7188Z" fill="#01A3DE" fill-opacity="1.000000" fill-rule="nonzero"/>
	<path id="Vector" d="M19.4609 4.27734C19.4609 4.39453 19.4727 4.50195 19.4609 4.61914C19.4336 5.09766 19.1797 5.38086 18.7578 5.39062C18.3398 5.40039 18.0469 5.12695 18.0078 4.66797C17.9883 4.41406 17.9883 4.15039 18.0078 3.88672C18.0469 3.4375 18.3672 3.13477 18.7578 3.1543C19.1602 3.17383 19.4336 3.47656 19.4531 3.93555C19.4609 4.04297 19.4609 4.16016 19.4609 4.27734Z" fill="#01A3DE" fill-opacity="1.000000" fill-rule="nonzero"/>
	<path id="Vector" d="M11.2969 12.4316C10.5469 12.4316 10.1953 12.207 10.1836 11.7285C10.1641 11.2207 10.5469 10.9766 11.3086 10.9766C11.4258 10.9766 11.5312 10.9668 11.6484 10.9766C12.1484 11.0156 12.4297 11.2988 12.4102 11.7383C12.4023 12.1582 12.1172 12.4023 11.6406 12.4316C11.5234 12.4414 11.4062 12.4316 11.2969 12.4316Z" fill="#01A3DE" fill-opacity="1.000000" fill-rule="nonzero"/>
	<path id="Vector" d="M26.1836 12.4316C26.0859 12.4316 25.9883 12.4316 25.8906 12.4316C25.375 12.4121 25.082 12.1582 25.0703 11.7285C25.0508 11.2793 25.3555 10.9961 25.8828 10.9668C26.0859 10.957 26.3008 10.957 26.5156 10.9668C27.0039 10.9961 27.3086 11.2891 27.2891 11.7188C27.2773 12.1289 26.9961 12.3926 26.5156 12.4219C26.4102 12.4414 26.293 12.4316 26.1836 12.4316Z" fill="#01A3DE" fill-opacity="1.000000" fill-rule="nonzero"/>
	<path id="Vector" d="M19.4648 19.1504C19.4648 19.2676 19.4727 19.375 19.4648 19.4922C19.4336 19.9609 19.1719 20.2441 18.7617 20.2539C18.3516 20.2637 18.0586 19.9805 18.0195 19.5215C18 19.2773 18 19.0332 18.0195 18.7891C18.0586 18.3008 18.3516 18.0078 18.7891 18.0273C19.2109 18.0469 19.4531 18.3203 19.4844 18.8086C19.4648 18.9258 19.4648 19.043 19.4648 19.1504Z" fill="#01A3DE" fill-opacity="1.000000" fill-rule="nonzero"/>
</svg>
