<svg width="45.988281" height="50.000000" viewBox="0 0 45.9883 50" fill="none" xmlns="http://www.w3.org/2000/svg" xmlns:xlink="http://www.w3.org/1999/xlink">
	<desc>
			Created with Pixso.
	</desc>
	<defs/>
	<path id="Vector" d="M0 18.9453C0 18.1348 0 17.3145 0 16.5039C0.03125 16.2695 0.0585938 16.0254 0.0898438 15.791C0.285156 13.9941 0.488281 12.207 0.664062 10.4102C0.734375 9.77539 1.08594 9.45312 1.65234 9.21875C6 7.43164 10.3633 5.66406 14.6719 3.78906C17.3906 2.60742 20.0352 1.26953 22.707 0C22.9023 0 23.0977 0 23.293 0C26.2695 1.39648 29.207 2.87109 32.2109 4.17969C36.25 5.9375 40.3438 7.57812 44.4258 9.25781C44.8828 9.44336 45.2188 9.70703 45.2969 10.2051C45.4414 11.1719 45.5977 12.1289 45.6953 13.1055C45.8242 14.2969 45.8906 15.498 45.9883 16.6992C45.9883 17.4121 45.9883 18.1348 45.9883 18.8477C45.9609 19.1406 45.9219 19.4238 45.9023 19.7168C45.7656 23.1934 45.207 26.6113 44.1094 29.9121C41.125 38.877 35.3125 45.2344 26.543 48.8574C25.4766 49.2969 24.3711 49.6191 23.2852 50C23.0898 50 22.8906 50 22.6953 50C22.5195 49.9316 22.3359 49.8535 22.1602 49.8047C17 48.2715 12.5391 45.6055 8.81641 41.709C3.69141 36.3281 1.125 29.7852 0.292969 22.4902C0.167969 21.3086 0.0976562 20.127 0 18.9453ZM43.9531 17.5586C43.7578 15.5176 43.5625 13.4863 43.3867 11.4453C43.3594 11.1621 43.2383 11.0254 42.9766 10.9277C36.3203 8.35938 29.793 5.50781 23.3711 2.39258C23.168 2.29492 22.8242 2.29492 22.6172 2.39258C20.9141 3.17383 19.25 4.04297 17.5391 4.77539C12.7227 6.8457 7.89844 8.87695 3.0625 10.9082C2.78125 11.0254 2.62109 11.1621 2.59375 11.4844C2.48438 12.7441 2.30859 14.0039 2.23047 15.2734C1.9375 20.2734 2.44531 25.1953 4.12891 29.9316C7.32031 38.9453 13.5352 44.8828 22.6758 47.7637C22.8633 47.8223 23.0977 47.8418 23.2852 47.7832C31.1055 45.3711 36.918 40.5859 40.5195 33.2227C42.9375 28.291 43.8164 23.0176 43.9531 17.5586Z" fill="#21AEE2" fill-opacity="1.000000" fill-rule="nonzero"/>
	<path id="Vector" d="M22.9922 33.3203C27.4844 33.3398 31.1719 29.7949 31.3398 25.3223C31.3398 25.1953 31.3477 25.0586 31.3594 24.9316C31.4453 24.3262 31.8984 23.9258 32.457 23.9648C33.0312 24.0039 33.4531 24.4531 33.4453 25.0879C33.4258 26.3477 33.1992 27.5781 32.7383 28.7598C30.9961 33.2324 26.457 35.9375 21.668 35.3418C17.0195 34.7656 13.2812 31.0547 12.6445 26.3867C11.8242 20.3027 16.4336 14.8633 22.668 14.5996C23.4883 14.5605 24 14.9316 24.0391 15.5859C24.0781 16.25 23.5898 16.6699 22.7383 16.6992C18.8789 16.8555 15.6797 19.4824 14.8672 23.1836C13.7031 28.3984 17.6289 33.3008 22.9922 33.3203Z" fill="#21AEE2" fill-opacity="1.000000" fill-rule="nonzero"/>
	<path id="Vector" d="M23.9492 25.5273C25.293 23.8574 26.582 22.2461 27.875 20.6348C29.0703 19.1504 30.2539 17.6562 31.4492 16.1719C31.9375 15.5664 32.5547 15.4492 33.0508 15.8594C33.5312 16.25 33.5508 16.8848 33.082 17.4609C30.3906 20.8301 27.6875 24.1992 24.9883 27.5586C24.4023 28.291 23.8125 28.3105 23.1367 27.6367C21.8672 26.377 20.6016 25.1074 19.332 23.8379C18.7812 23.291 18.7344 22.6562 19.2031 22.2168C19.6445 21.7871 20.2812 21.8457 20.8008 22.373C21.8359 23.4082 22.875 24.4531 23.9492 25.5273Z" fill="#21AEE2" fill-opacity="1.000000" fill-rule="nonzero"/>
</svg>
