<svg width="49.960938" height="50.009766" viewBox="0 0 49.9609 50.0098" fill="none" xmlns="http://www.w3.org/2000/svg" xmlns:xlink="http://www.w3.org/1999/xlink">
	<desc>
			Created with Pixso.
	</desc>
	<defs/>
	<path id="Vector" d="M8.84766 50.0098C8.13281 49.8242 7.39062 49.6973 6.69922 49.4434C2.87891 47.998 0.652344 45.2148 0.0859375 41.1816C-0.636719 36.0156 3.23047 30.9277 8.36719 30.1758C9.44141 30.0195 10.4961 30 11.5703 30.1562C11.7852 30.1855 12.0898 30.0879 12.2461 29.9316C18.1523 24.043 24.0508 18.1445 29.9414 12.2266C30.0781 12.0898 30.1758 11.8066 30.1445 11.6016C29.3359 6.03516 32.8594 1.13281 38.4062 0.126953C38.6406 0.0878906 38.8867 0.0488281 39.1211 0C39.707 0 40.293 0 40.8789 0C41.2891 0.078125 41.6992 0.166016 42.1094 0.244141C42.5078 0.3125 42.8789 0.429688 43.0156 0.869141C43.1523 1.31836 42.9102 1.64062 42.6055 1.94336C41.0352 3.50586 39.4805 5.06836 37.9102 6.63086C37.7148 6.82617 37.6562 6.98242 37.7539 7.26562C38.1523 8.39844 38.5156 9.54102 38.9141 10.6738C38.9844 10.8594 39.1992 11.0645 39.3828 11.1328C40.4883 11.5234 41.6016 11.8652 42.7031 12.2559C43.0352 12.373 43.2305 12.3047 43.4648 12.0703C45 10.5176 46.543 8.98438 48.0859 7.44141C48.3789 7.14844 48.6719 6.86523 49.1406 7.01172C49.6094 7.1582 49.7148 7.5293 49.7852 7.94922C49.8125 8.16406 49.9023 8.37891 49.9609 8.59375C49.9609 9.54102 49.9609 10.4785 49.9609 11.4258C49.9297 11.5332 49.8828 11.6406 49.8633 11.748C49.0039 17.0508 43.7773 20.7812 38.4844 19.8633C38.1719 19.8047 37.9766 19.873 37.7539 20.0977C36.5039 21.377 35.2227 22.6367 33.9648 23.8965C33.875 23.9844 33.8086 24.082 33.6914 24.2188C34.2383 24.7461 34.7656 25.2539 35.2812 25.7715C36.0234 26.5039 36.0234 26.8164 35.3125 27.5586C34.832 28.0566 34.7852 28.5742 35.1758 28.9844C35.5742 29.4043 36.1133 29.3652 36.6406 28.877C37.3828 28.1836 37.6836 28.1836 38.3867 28.8867C41.543 32.041 44.6953 35.1855 47.8398 38.3398C48.1328 38.6426 48.418 38.9648 48.6797 39.2871C49.3359 40.0781 49.6367 41.0352 49.9492 41.9922C49.9492 42.8711 49.9492 43.75 49.9492 44.6289C49.9102 44.7363 49.8633 44.834 49.832 44.9414C49.4023 46.5723 48.4961 47.8711 47.1289 48.8477C46.2969 49.4434 45.3516 49.7363 44.3828 50C43.6719 50 42.9492 50 42.2344 50C40.1953 49.6094 38.7578 48.3203 37.3633 46.8945C34.5781 44.043 31.7383 41.25 28.9141 38.4375C28.8086 38.3301 28.6992 38.2324 28.6133 38.125C28.2617 37.7148 28.2617 37.3145 28.6211 36.8945C28.7891 36.6992 28.9922 36.5234 29.1289 36.3086C29.3633 35.9375 29.3164 35.5469 29.0234 35.2344C28.7109 34.9023 28.3203 34.834 27.9102 35.0488C27.7422 35.1367 27.5977 35.2832 27.4609 35.4102C26.8555 35.9863 26.4844 35.9863 25.8867 35.3906C25.332 34.834 24.7734 34.2676 24.1875 33.6719C22.9766 34.8828 21.8438 36.0645 20.6523 37.1875C20.0781 37.7344 19.8438 38.2324 19.9297 39.1016C20.3906 43.7012 17.7148 47.8418 13.3477 49.4141C12.625 49.6777 11.8438 49.8047 11.0938 49.9902C10.3398 50.0098 9.59766 50.0098 8.84766 50.0098ZM40.457 1.70898C39.0234 1.61133 37.4102 1.95312 36.2109 2.58789C32.832 4.38477 31.1328 7.91992 31.8945 11.6797C32.0117 12.2656 31.8828 12.6855 31.4531 13.1152C25.3125 19.2383 19.1797 25.3711 13.0547 31.5137C12.6641 31.9043 12.2734 31.9727 11.7383 31.9141C10.7891 31.8066 9.8125 31.6699 8.88672 31.7871C4.08203 32.373 0.820312 36.9336 1.73828 41.6895C2.625 46.3184 7.07031 49.2188 11.8047 48.2617C16.1914 47.3828 19.1289 42.8418 18.1719 38.3984C18.0469 37.793 18.1641 37.3633 18.6133 36.9141C22.1875 33.3789 25.7305 29.8145 29.2852 26.2598C31.8633 23.6816 34.4414 21.1133 37.0117 18.5254C37.3633 18.1738 37.7148 18.0273 38.2305 18.125C38.8867 18.252 39.5508 18.3594 40.2148 18.3496C44.3359 18.2812 47.7344 15.2441 48.3008 11.1523C48.3672 10.6738 48.3594 10.1855 48.3789 9.69727C48.125 9.80469 47.9961 9.92188 47.8711 10.0488C46.6289 11.2891 45.3789 12.5293 44.1484 13.7793C43.7773 14.1602 43.3867 14.2676 42.8789 14.082C41.3945 13.5645 39.8906 13.0664 38.3984 12.5879C37.918 12.4316 37.6367 12.1484 37.4805 11.6699C37 10.2051 36.5234 8.74023 36.0156 7.28516C35.8086 6.70898 35.918 6.2793 36.3672 5.84961C37.625 4.62891 38.8555 3.36914 40.0977 2.12891C40.1953 2.00195 40.293 1.875 40.457 1.70898ZM47.0977 40.0488C43.875 36.8457 40.6641 33.6426 37.4414 30.4395C36.2109 31.1914 34.9883 31.1816 34.1094 30.2637C33.7383 29.873 33.4648 29.3262 33.3086 28.7988C33.0938 28.0469 33.3789 27.334 33.8281 26.7188C33.3789 26.2695 32.957 25.8398 32.5781 25.459C30.2031 27.8418 27.8398 30.2246 25.4961 32.5781C25.8672 32.959 26.2891 33.3887 26.7188 33.8281C26.8359 33.75 26.9609 33.6719 27.0898 33.6035C28.125 33.0176 29.3828 33.2031 30.2227 34.0527C31.0234 34.873 31.2188 36.1816 30.5938 37.1582C30.3789 37.5 30.4688 37.6465 30.7031 37.8809C33.6602 40.8301 36.6211 43.7891 39.5781 46.748C39.7266 46.8945 39.8828 47.0215 40.0195 47.1484C42.4023 44.7461 44.7461 42.4023 47.0977 40.0488ZM47.9688 41.5332C45.8008 43.6914 43.6602 45.8105 41.4844 47.9883C43.418 48.7207 45.6445 48.2227 46.8828 46.875C48.2891 45.3223 48.7578 43.1641 47.9688 41.5332Z" fill="#01A3DE" fill-opacity="1.000000" fill-rule="nonzero"/>
	<path id="Vector" d="M4.44922 0.00976562C6.24609 1.04492 8.02344 2.10938 9.85156 3.10547C10.5156 3.4668 10.9141 3.91602 11.0039 4.6582C11.1992 6.36719 12.0586 7.64648 13.3086 8.82812C16.2266 11.5918 19.0117 14.4824 21.8516 17.3242C21.9805 17.4512 22.125 17.5586 22.2422 17.6465C21.8125 18.0566 21.4336 18.418 21.0117 18.8184C20.9727 18.7793 20.8477 18.6719 20.7305 18.5449C17.332 15.1562 13.9336 11.7676 10.5547 8.35938C10.2812 8.08594 10.0859 7.70508 9.96875 7.33398C9.72266 6.57227 9.57812 5.79102 9.36328 5.01953C9.32422 4.87305 9.24609 4.69727 9.12891 4.62891C7.53516 3.7207 5.94531 2.8125 4.40234 1.93359C3.57031 2.76367 2.76172 3.55469 1.92969 4.38477C2.80859 5.9375 3.70703 7.5293 4.63672 9.11133C4.71484 9.23828 4.91016 9.32617 5.06641 9.375C5.67188 9.54102 6.28516 9.72656 6.91016 9.83398C7.63281 9.96094 8.17969 10.3125 8.6875 10.8301C11.9492 14.1211 15.2422 17.3926 18.5234 20.6738C18.6484 20.8008 18.8047 20.8984 18.9727 21.0352C18.5117 21.4453 18.1133 21.8066 17.5938 22.2656C17.5469 22.1875 17.4766 21.9922 17.3398 21.8555C14.0391 18.5547 10.7383 15.2441 7.42969 11.9629C7.21484 11.748 6.90234 11.5918 6.60938 11.5039C5.81641 11.2695 4.99609 11.123 4.20703 10.8691C3.88281 10.7617 3.52344 10.5176 3.35547 10.2344C2.28125 8.4375 1.25781 6.60156 0.222656 4.78516C-0.0820312 4.24805 -0.0507812 3.93555 0.359375 3.51562C1.40234 2.44141 2.44922 1.39648 3.50391 0.351562C3.64062 0.224609 3.80469 0.126953 3.96094 0.00976562C4.12891 0.00976562 4.28516 0.00976562 4.44922 0.00976562Z" fill="#01A3DE" fill-opacity="1.000000" fill-rule="nonzero"/>
	<path id="Vector" d="M10.0117 45.0293C9.24609 45.0293 8.47656 45.0195 7.71484 45.0293C7.26562 45.0391 6.94141 44.873 6.70703 44.4824C5.9375 43.1836 5.16797 41.8848 4.375 40.5957C4.14062 40.2051 4.14062 39.8438 4.375 39.4531C5.15625 38.1641 5.9375 36.8652 6.70703 35.5664C6.93359 35.1855 7.23828 35.0195 7.66797 35.0195C9.23047 35.0293 10.793 35.0293 12.3555 35.0195C12.7852 35.0195 13.0859 35.1855 13.3125 35.5664C14.082 36.8652 14.8633 38.1641 15.6445 39.4531C15.8789 39.8438 15.8789 40.2051 15.6445 40.5957C14.8633 41.8848 14.082 43.1836 13.3125 44.4824C13.0742 44.873 12.7539 45.0391 12.3047 45.0293C11.543 45.0195 10.7812 45.0293 10.0117 45.0293ZM10.0117 43.3594C10.5664 43.3594 11.1133 43.3398 11.668 43.3691C11.9531 43.3789 12.1094 43.2715 12.2461 43.0371C12.7734 42.1191 13.3398 41.2305 13.8555 40.3027C13.9336 40.1562 13.9453 39.8926 13.8672 39.7559C13.3398 38.8184 12.7852 37.9004 12.2148 36.9922C12.1289 36.8457 11.8945 36.709 11.7305 36.6992C10.5859 36.6699 9.45312 36.6699 8.30859 36.6992C8.14453 36.6992 7.91016 36.8359 7.82031 36.9824C7.24609 37.8906 6.69922 38.8086 6.17188 39.7461C6.09375 39.8926 6.09375 40.1562 6.17188 40.3027C6.69922 41.2305 7.25391 42.1582 7.83203 43.0664C7.92969 43.2227 8.17188 43.3398 8.35938 43.3594C8.90625 43.3887 9.45312 43.3594 10.0117 43.3594Z" fill="#01A3DE" fill-opacity="1.000000" fill-rule="nonzero"/>
	<path id="Vector" d="M16.3672 34.6777C16.0469 34.3652 15.6719 34.0039 15.3516 33.6719C21.457 27.5684 27.5508 21.4746 33.6602 15.3711C33.957 15.6836 34.3164 16.0742 34.6289 16.416C28.5742 22.4707 22.4805 28.5547 16.3672 34.6777Z" fill="#01A3DE" fill-opacity="1.000000" fill-rule="nonzero"/>
	<path id="Vector" d="M33.7109 34.6973C34.0352 34.375 34.3945 34.0039 34.7148 33.6621C37.4883 36.4355 40.2617 39.209 43.0352 41.9824C42.6953 42.3145 42.3242 42.6758 42 42.9883C39.2578 40.2441 36.4961 37.4805 33.7109 34.6973Z" fill="#01A3DE" fill-opacity="1.000000" fill-rule="nonzero"/>
</svg>
