<svg width="49.988281" height="50.000000" viewBox="0 0 49.9883 50" fill="none" xmlns="http://www.w3.org/2000/svg" xmlns:xlink="http://www.w3.org/1999/xlink">
	<desc>
			Created with Pixso.
	</desc>
	<defs/>
	<path id="Vector" d="M46.2461 50C32.0742 50 17.9141 50 3.74414 50C3.62305 49.9669 3.51172 49.923 3.39062 49.8899C1.7832 49.5155 0.714844 48.5576 0.208984 46.983C0.132812 46.7408 0.0664062 46.4985 0 46.2563C0 45.1553 0 44.0542 0 42.9531C0.408203 41.9951 1.33203 42.4467 2.04883 42.2484C2.04883 42.0061 2.04883 41.7859 2.04883 41.5657C2.04883 37.6018 2.04883 33.6379 2.04883 29.6741C2.04883 25.6882 2.03711 21.7133 2.04883 17.7274C2.05859 15.5142 3.45703 14.1158 5.66016 14.1158C6.92578 14.1158 8.19141 14.1158 9.45898 14.1158C9.65625 14.1158 9.85547 14.1158 10.1074 14.1158C10.1074 13.8296 10.1074 13.6204 10.1074 13.4001C10.1074 9.84363 10.1074 6.28711 10.1074 2.7196C10.1074 1.55249 10.6152 0.715698 11.6719 0.231201C11.8809 0.13208 12.123 0.0770264 12.3438 0C18.6523 0 24.9727 0 31.2812 0C31.4473 0.143188 31.623 0.275269 31.7656 0.418457C34.3418 2.98389 36.9199 5.54944 39.4629 8.13696C39.7051 8.37915 39.8594 8.79761 39.8691 9.15002C39.9141 10.6034 39.8926 12.0458 39.8926 13.4993C39.8926 13.6974 39.8926 13.8846 39.8926 14.1158C41.4785 14.1158 42.9863 14.1049 44.4844 14.1158C46.1465 14.1268 47.4668 15.1399 47.8301 16.6814C47.9297 17.0997 47.9414 17.5511 47.9414 17.9916C47.9512 25.8423 47.9414 33.693 47.9414 41.5547C47.9414 41.7859 47.9414 42.0172 47.9414 42.2594C48.7012 42.4136 49.5703 42.0172 49.9883 42.9421C49.9883 44.0432 49.9883 45.1443 49.9883 46.2454C49.9453 46.3884 49.9004 46.5206 49.8672 46.6637C49.582 47.8749 48.9219 48.8329 47.8203 49.4164C47.3359 49.6917 46.7734 49.8129 46.2461 50ZM38.2949 9.70056C38.0312 9.70056 37.834 9.70056 37.6348 9.70056C35.5645 9.70056 33.4844 9.70056 31.4141 9.70056C30.4668 9.70056 30.2363 9.48035 30.2363 8.54443C30.2363 6.45227 30.2363 4.36023 30.2363 2.26819C30.2363 2.07007 30.2246 1.88281 30.2129 1.65161C29.9707 1.65161 29.7949 1.65161 29.6074 1.65161C24.0801 1.65161 18.5645 1.65161 13.0371 1.65161C11.9805 1.65161 11.7051 1.92688 11.7051 2.995C11.7051 13.5432 11.7051 24.0916 11.7051 34.651C11.7051 35.741 11.9805 36.0164 13.0703 36.0164C20.998 36.0164 28.9258 36.0164 36.8535 36.0164C38.0527 36.0164 38.2949 35.774 38.2949 34.5629C38.2949 26.5029 38.2949 18.4541 38.2949 10.3942C38.2949 10.196 38.2949 9.9978 38.2949 9.70056ZM42.877 42.3145C42.877 34.5519 42.877 26.8773 42.877 19.2028C41.8633 19.2028 40.9043 19.2028 39.8809 19.2028C39.8809 19.4451 39.8809 19.6653 39.8809 19.8855C39.8809 24.8184 39.8477 29.7622 39.9023 34.6949C39.9258 36.4568 38.791 37.6569 36.9297 37.6459C28.9688 37.6129 20.998 37.6129 13.0371 37.6459C11.209 37.6569 10.0527 36.4678 10.0742 34.684C10.1406 29.7511 10.0977 24.8074 10.0977 19.8745C10.0977 19.6543 10.0977 19.4451 10.0977 19.2139C9.0625 19.2139 8.08203 19.2139 7.10156 19.2139C7.10156 26.9324 7.10156 34.6069 7.10156 42.3145C7.36719 42.3145 7.58594 42.3145 7.79492 42.3145C11.2422 42.3145 14.6992 42.3145 18.1465 42.3145C20.2266 42.3145 19.8418 42.0942 20.8223 43.911C21.0078 44.2523 21.2285 44.3514 21.6035 44.3514C23.5625 44.3405 25.5332 44.2744 27.4941 44.3735C28.5625 44.4286 29.2344 44.1533 29.5645 43.1293C29.7734 42.5017 30.2363 42.3145 30.8965 42.3145C34.6621 42.3364 38.416 42.3254 42.1816 42.3254C42.4023 42.3145 42.623 42.3145 42.877 42.3145ZM1.66211 43.9441C1.66211 44.7368 1.60742 45.4525 1.67383 46.1572C1.79492 47.4785 2.92969 48.3704 4.4375 48.3704C18.1465 48.3704 31.8438 48.3704 45.5508 48.3704C45.6836 48.3704 45.8047 48.3704 45.9375 48.3704C47.127 48.3153 48.1836 47.4125 48.3145 46.2343C48.3926 45.4966 48.3262 44.7478 48.3262 43.9551C48.0723 43.9551 47.8535 43.9551 47.6445 43.9551C42.6016 43.9551 37.5586 43.9991 32.5039 43.922C31.3477 43.9 30.5996 44.1422 30.2363 45.2874C30.0703 45.8049 29.6621 45.9701 29.1133 45.9701C26.7129 45.948 24.3008 45.9701 21.9004 45.959C19.875 45.948 20.2715 46.2123 19.3027 44.4286C19.0918 44.0321 18.8496 43.9441 18.4434 43.9441C13.0703 43.9551 7.69727 43.9551 2.3125 43.9551C2.11328 43.9441 1.91602 43.9441 1.66211 43.9441ZM39.9141 17.5511C41.0586 17.5511 42.1387 17.5511 43.2168 17.5511C44.3301 17.5511 44.5176 17.7384 44.5176 18.8724C44.5176 26.4479 44.5176 34.0233 44.5176 41.5988C44.5176 41.83 44.5176 42.0502 44.5176 42.2815C45.166 42.2815 45.7285 42.2815 46.3105 42.2815C46.3223 42.1824 46.3438 42.1052 46.3438 42.0392C46.3438 33.8802 46.3555 25.7102 46.3438 17.5511C46.3438 16.4941 45.584 15.7675 44.5273 15.7565C43.1191 15.7455 41.6973 15.7565 40.2891 15.7565C40.168 15.7565 40.0469 15.7894 39.9258 15.8115C39.9141 16.384 39.9141 16.9236 39.9141 17.5511ZM10.0859 15.7565C8.62109 15.7565 7.21289 15.7565 5.80273 15.7565C4.30469 15.7565 3.65625 16.4061 3.65625 17.8926C3.65625 25.8203 3.65625 33.7371 3.65625 41.6648C3.65625 41.863 3.65625 42.0613 3.65625 42.2815C4.2832 42.2815 4.85547 42.2815 5.48242 42.2815C5.48242 42.0282 5.48242 41.808 5.48242 41.5878C5.48242 35.796 5.48242 29.9934 5.48242 24.2017C5.48242 22.3298 5.48242 20.458 5.48242 18.5862C5.48242 17.8264 5.74805 17.5623 6.51758 17.5623C7.50977 17.5511 8.5 17.5623 9.49219 17.5623C9.68945 17.5623 9.87695 17.5402 10.0977 17.5292C10.0859 16.9236 10.0859 16.373 10.0859 15.7565ZM31.8652 8.03784C33.582 8.03784 35.2793 8.03784 36.875 8.03784C35.2129 6.37524 33.5273 4.69055 31.8652 3.01697C31.8652 4.6355 31.8652 6.33118 31.8652 8.03784Z" fill="#01A3DE" fill-opacity="1.000000" fill-rule="nonzero"/>
	<path id="Vector" d="M28.959 22.4622C27.5039 22.4622 26.0625 22.4622 24.6094 22.4622C23.9375 22.4622 23.5742 22.1758 23.5625 21.6693C23.5508 21.1409 23.9375 20.8325 24.6191 20.8325C27.5488 20.8325 30.4883 20.8325 33.418 20.8325C34.0898 20.8325 34.4531 21.1188 34.4629 21.6252C34.4746 22.1648 34.1113 22.451 33.4062 22.451C31.9316 22.4622 30.4453 22.4622 28.959 22.4622Z" fill="#01A3DE" fill-opacity="1.000000" fill-rule="nonzero"/>
	<path id="Vector" d="M29.0234 16.4169C27.5137 16.4169 26.0176 16.4169 24.5078 16.4169C23.8691 16.4169 23.4629 16.0095 23.5723 15.481C23.6602 15.0074 23.9902 14.7983 24.4434 14.7983C27.4824 14.7872 30.5312 14.7872 33.5703 14.7983C34.1426 14.7983 34.4727 15.1396 34.4629 15.6241C34.4512 16.1085 34.1094 16.4059 33.5273 16.4059C32.0293 16.4279 30.5312 16.4169 29.0234 16.4169Z" fill="#01A3DE" fill-opacity="1.000000" fill-rule="nonzero"/>
	<path id="Vector" d="M29.0684 26.8884C30.5547 26.8884 32.041 26.8884 33.5273 26.8884C34.1562 26.8884 34.5195 27.2518 34.4746 27.7693C34.4316 28.2318 34.0898 28.496 33.4844 28.496C31.8555 28.5071 30.2246 28.496 28.584 28.496C27.2637 28.496 25.9414 28.496 24.6211 28.496C23.9258 28.496 23.541 28.1877 23.5625 27.6592C23.5742 27.1527 23.9492 26.8774 24.6094 26.8774C26.1074 26.8774 27.582 26.8884 29.0684 26.8884Z" fill="#01A3DE" fill-opacity="1.000000" fill-rule="nonzero"/>
	<path id="Vector" d="M17.5938 27.9893C18.3418 27.2295 18.9805 26.5688 19.6309 25.9192C20.0723 25.4788 20.5234 25.4348 20.8867 25.7651C21.2598 26.1174 21.2285 26.5909 20.7656 27.0643C19.9824 27.8572 19.1914 28.6499 18.3984 29.4426C17.8477 29.9822 17.4844 29.9822 16.9453 29.4537C16.5586 29.0793 16.1855 28.705 15.8203 28.3196C15.4473 27.9342 15.4258 27.4718 15.7324 27.1415C16.0742 26.7781 16.5371 26.7781 16.9453 27.1744C17.1758 27.4167 17.3516 27.692 17.5938 27.9893Z" fill="#01A3DE" fill-opacity="1.000000" fill-rule="nonzero"/>
	<path id="Vector" d="M17.6055 21.9222C18.3418 21.1735 18.9707 20.5349 19.6094 19.8962C20.082 19.4229 20.5332 19.3788 20.8965 19.7421C21.2598 20.1055 21.2168 20.5679 20.7422 21.0414C19.9492 21.8341 19.168 22.627 18.3652 23.4087C17.8242 23.9373 17.4609 23.9373 16.9121 23.3977C16.5371 23.0233 16.1523 22.6489 15.7871 22.2635C15.4238 21.8782 15.4141 21.4158 15.7324 21.0854C16.0625 20.7441 16.5039 20.7441 16.9004 21.1184C17.1426 21.3497 17.3398 21.625 17.6055 21.9222Z" fill="#01A3DE" fill-opacity="1.000000" fill-rule="nonzero"/>
	<path id="Vector" d="M17.5859 15.8994C18.3457 15.1287 18.9727 14.49 19.6113 13.8514C20.084 13.3779 20.5352 13.3339 20.8984 13.7083C21.2637 14.0717 21.207 14.5231 20.7344 14.9965C19.9414 15.7893 19.1602 16.582 18.3672 17.3639C17.8379 17.8813 17.4746 17.8813 16.957 17.3749C16.5605 16.9895 16.1758 16.6041 15.791 16.2076C15.4277 15.8223 15.416 15.3599 15.7461 15.0295C16.0762 14.6992 16.5273 14.6992 16.9141 15.0736C17.1562 15.3158 17.3438 15.5911 17.5859 15.8994Z" fill="#01A3DE" fill-opacity="1.000000" fill-rule="nonzero"/>
</svg>
