<svg width="50.000000" height="50.000000" viewBox="0 0 50 50" fill="none" xmlns="http://www.w3.org/2000/svg" xmlns:xlink="http://www.w3.org/1999/xlink">
	<desc>
			Created with Pixso.
	</desc>
	<defs/>
	<path id="Vector" d="M45.2129 50C43.7598 49.8121 42.7324 48.9229 41.7422 47.9209C38.6836 44.8271 35.6016 41.771 32.543 38.6899C32.2559 38.4019 32.0547 38.3392 31.6914 38.5646C29.5488 39.9174 27.2188 40.8066 24.7363 41.27C21.1035 41.9464 17.5195 41.6959 14.0098 40.481C10.5762 39.2911 7.65625 37.3247 5.23828 34.6067C2.80664 31.8762 1.21484 28.72 0.462891 25.1503C0.289062 24.3362 0.224609 23.5095 0.0996094 22.6954C0.0742188 22.52 0.0371094 22.3447 0 22.1693C0 21.3176 0 20.4785 0 19.6267C0.0253906 19.5015 0.0742188 19.3762 0.0878906 19.251C0.300781 16.2324 1.11523 13.3893 2.60742 10.7715C5.81445 5.13525 10.6133 1.66577 16.9805 0.375732C17.8203 0.212891 18.6719 0.125244 19.5234 0C20.3008 0 21.0898 0 21.8672 0C22.6074 0.10022 23.3457 0.175293 24.0859 0.288086C29.3359 1.15234 33.6582 3.64478 37.043 7.7655C37.1426 7.8783 37.2422 7.99097 37.3691 8.12878C37.7812 7.71545 38.1445 7.32715 38.5332 6.96387C38.7461 6.76355 38.7598 6.60071 38.6348 6.33765C37.8828 4.63428 38.6582 2.66785 40.3633 1.94141C42.0918 1.21497 44.0469 2.04163 44.7363 3.80762C44.8496 4.10828 45.0117 4.18335 45.3125 4.18335C46.8789 4.1709 48.4336 4.18335 50 4.19592C50 4.74695 50 5.2981 50 5.84924C48.4082 5.84924 46.8164 5.84924 45.2129 5.83667C44.9629 5.83667 44.8496 5.91187 44.7617 6.14978C44.0098 8.02856 42.1426 8.78003 40.2383 8.00354C40.125 7.95337 39.9121 7.96594 39.8242 8.04114C39.3105 8.50452 38.8223 9.00549 38.3086 9.49402C38.5215 9.85718 38.709 10.1578 38.8848 10.4709C40.752 13.6899 41.6797 17.1843 41.6543 20.8917C41.6426 24.762 40.6133 28.3693 38.5723 31.6633C38.3574 32.0015 38.3711 32.1893 38.6582 32.4774C41.7676 35.5586 44.8496 38.6648 47.957 41.746C48.9219 42.6979 49.7617 43.7 49.9883 45.0902C49.9883 45.4158 49.9883 45.7415 49.9883 46.0671C49.9629 46.1674 49.9258 46.28 49.9004 46.3928C49.6738 47.4824 49.1348 48.3717 48.2461 49.0731C47.6074 49.5867 46.8418 49.7871 46.0781 49.9874C45.8027 50 45.5137 50 45.2129 50ZM40 20.8417C39.9629 10.2455 31.4531 1.5155 20.4766 1.66577C10.2012 1.80359 1.49219 10.1954 1.64258 21.1674C1.7793 31.3878 10.1133 40.1428 21.166 39.98C31.4414 39.8297 39.9004 31.5631 40 20.8417ZM40.9277 37.0867C39.6367 38.3767 38.3828 39.6417 37.1309 40.8943C39.3242 43.0988 41.5547 45.3533 43.7969 47.5826C44.248 48.0336 44.8125 48.2715 45.4512 48.3217C46.5781 48.3969 47.6191 47.7957 48.0957 46.7686C48.584 45.729 48.3965 44.5767 47.5059 43.6748C45.3125 41.4705 43.0957 39.266 40.9277 37.0867ZM37.543 33.8176C36.3027 35.045 35.0371 36.2976 33.8477 37.4874C34.4238 38.0511 35.1758 38.8026 35.8652 39.4915C37.0801 38.2891 38.334 37.0491 39.5742 35.8342C38.834 35.1077 38.082 34.3688 37.543 33.8176ZM41.6543 6.6759C42.582 6.6759 43.3457 5.93689 43.334 5.01001C43.3203 4.12073 42.5684 3.36926 41.6797 3.35669C40.7637 3.34424 40.0117 4.10828 40.0117 5.03503C40.0254 5.96191 40.7402 6.6759 41.6543 6.6759Z" fill="#01A3DE" fill-opacity="1.000000" fill-rule="nonzero"/>
	<path id="Vector" d="M20.8535 3.35669C30.627 3.48193 38.3086 11.1724 38.3223 20.8541C38.3223 30.6864 30.4023 38.3517 20.8027 38.3141C11.0156 38.2765 3.33398 30.4484 3.35938 20.8167C3.39648 11.0095 11.2168 3.44434 20.8535 3.35669ZM5.15234 19.1758C4.38672 25.0751 7.40625 32.2395 14.5371 35.3457C21.0293 38.1763 28.7109 36.4604 33.3223 30.561C37.7832 24.8622 37.3066 17.6102 34.5996 13.2139C34.1113 13.7148 33.6602 14.2159 33.1582 14.6919C32.9199 14.9174 32.8965 15.0927 33.0332 15.3933C33.9238 17.3848 32.6191 19.6517 30.4531 19.9774C29.6758 20.0902 28.9863 19.8772 28.2852 19.5641C26.5293 21.3176 24.7871 23.0586 23.0703 24.8121C22.9707 24.9124 22.9844 25.1879 23.0469 25.3507C23.5352 26.5531 23.4102 27.6929 22.6191 28.7074C21.5547 30.0852 19.7383 30.3983 18.2461 29.509C16.8438 28.6698 16.3047 26.9038 16.9688 25.3257C17.0312 25.1879 17.043 24.9374 16.9688 24.8622C15.7773 23.6472 14.5625 22.4448 13.3711 21.2424C11.0918 22.1567 9.63672 21.5931 8.52148 19.3888C8.47266 19.2886 8.30859 19.1884 8.19727 19.1884C7.19336 19.1758 6.19141 19.1758 5.15234 19.1758ZM5.41406 17.51C6.19141 17.51 6.91797 17.485 7.64453 17.5225C8.17188 17.5476 8.59766 17.5225 8.71094 16.8838C8.73633 16.7209 8.87305 16.5706 8.97266 16.4203C9.98828 15.0175 11.8438 14.6293 13.3594 15.506C14.8008 16.3326 15.377 18.1488 14.6875 19.7019C14.5879 19.9398 14.5508 20.0776 14.7637 20.2905C15.8789 21.3802 16.9688 22.495 18.0957 23.5846C18.1973 23.6848 18.4473 23.735 18.5859 23.6724C19.5371 23.2465 20.4648 23.2465 21.418 23.6598C21.543 23.7224 21.8047 23.6724 21.9062 23.5721C23.5859 21.9188 25.252 20.2529 26.918 18.5746C27.0195 18.4744 27.0566 18.2239 27.0059 18.0986C26.4414 16.7585 26.668 15.3557 27.6445 14.3536C28.6094 13.3643 30.0391 13.1136 31.4297 13.6898C31.5547 13.74 31.7676 13.74 31.8438 13.6648C32.4941 13.051 33.1094 12.4124 33.7363 11.7986C30.9668 7.55261 25.0137 4.15833 18.3223 5.24792C11.4551 6.37524 6.5918 11.6858 5.41406 17.51ZM10.0254 18.3491C10.0254 19.2635 10.752 20.0024 11.6543 20.015C12.5566 20.0276 13.3477 19.2635 13.3477 18.3491C13.3477 17.4348 12.582 16.6833 11.6543 16.6959C10.7402 16.7084 10.0254 17.4348 10.0254 18.3491ZM19.9883 28.3317C20.916 28.3441 21.6797 27.5927 21.668 26.6783C21.668 25.7765 20.9277 25.0376 20.0254 25.025C19.123 25.0125 18.3711 25.7389 18.3477 26.6407C18.334 27.5676 19.0605 28.3191 19.9883 28.3317ZM31.6543 16.6959C31.6543 15.769 30.9531 15.0426 30.0391 15.03C29.1113 15.0175 28.3477 15.744 28.334 16.6708C28.3223 17.5726 29.1113 18.3617 30.0137 18.3491C30.916 18.3491 31.6543 17.6102 31.6543 16.6959Z" fill="#01A3DE" fill-opacity="1.000000" fill-rule="nonzero"/>
</svg>
