<svg width="50.000000" height="39.081299" viewBox="0 0 50 39.0813" fill="none" xmlns="http://www.w3.org/2000/svg" xmlns:xlink="http://www.w3.org/1999/xlink">
	<desc>
			Created with Pixso.
	</desc>
	<defs/>
	<path id="Vector" d="M0 11.87C0.224609 10.9421 0.488281 10.0142 1.06445 9.22302C2.26562 7.54297 3.90625 6.703 5.95898 6.61511C6.1543 6.60535 6.34961 6.60535 6.54492 6.59558C6.57422 6.59558 6.60352 6.57605 6.69141 6.52722C6.69141 5.94116 6.69141 5.32581 6.69141 4.72021C6.69141 3.93872 6.68164 3.15735 6.69141 2.37598C6.71094 0.901123 7.57031 0.0317383 9.02539 0.0317383C12.6875 0.0219727 16.3516 0.0317383 20.0137 0.0317383C20.6484 0.0317383 21.0098 0.324829 20.9805 0.803345C20.9512 1.24292 20.6094 1.49695 20.0332 1.49695C17.5918 1.49695 15.1504 1.49695 12.707 1.49695C11.4668 1.49695 10.2363 1.49695 8.99609 1.49695C8.41992 1.49695 8.16602 1.73132 8.16602 2.27832C8.15625 5.32581 8.16602 8.36353 8.16602 11.4109C8.16602 11.4402 8.18555 11.4696 8.20508 11.538C8.75195 11.538 9.30859 11.538 9.95312 11.538C9.95312 10.8933 9.93359 10.2389 9.95312 9.57458C9.98242 8.52954 10.7148 7.63086 11.7109 7.36719C13.2441 6.96667 14.6699 8.06067 14.7188 9.69189C14.7383 10.2975 14.7188 10.8933 14.7188 11.538C16.3125 11.538 17.875 11.538 19.5156 11.538C19.5156 10.8738 19.4961 10.2194 19.5156 9.55505C19.5547 8.35376 20.5117 7.38672 21.7227 7.28906C22.8652 7.19141 23.9785 8.00208 24.1934 9.13513C24.291 9.65283 24.2617 10.1997 24.2812 10.7369C24.291 10.991 24.2812 11.2546 24.2812 11.538C25.8848 11.538 27.457 11.538 29.0781 11.538C29.0781 10.9324 29.0781 10.3561 29.0781 9.77002C29.0879 8.34399 30.1133 7.26953 31.4609 7.2793C32.8086 7.2793 33.834 8.35376 33.8535 9.77979C33.8633 10.3658 33.8535 10.9421 33.8535 11.5477C34.4492 11.5477 34.9961 11.5477 35.6328 11.5477C35.6328 11.4011 35.6328 11.2449 35.6328 11.0886C35.6328 8.20715 35.6328 5.32581 35.6328 2.44434C35.6328 1.70203 35.418 1.48718 34.6836 1.48718C31.0898 1.48718 27.4863 1.48718 23.8906 1.48718C23.6855 1.48718 23.4121 1.51648 23.2852 1.39917C23.0801 1.21362 22.8457 0.910889 22.8652 0.676392C22.8848 0.451782 23.1973 0.217407 23.4219 0.0512695C23.5293 -0.0268555 23.7344 0.0219727 23.9004 0.0219727C27.4863 0.0219727 31.0605 0.0219727 34.6445 0.0219727C36.2676 0.0219727 37.1074 0.862061 37.1074 2.49316C37.1074 5.61877 37.1074 8.74438 37.1074 11.87C37.1074 12.8761 36.9805 13.0128 35.9648 13.0421C35.8867 13.0421 35.8086 13.0616 35.6719 13.0714C35.6719 13.2765 35.6719 13.4622 35.6719 13.6575C35.6719 17.3008 35.6816 20.9539 35.6719 24.5972C35.6621 26.6971 34.459 28.338 32.5938 28.8459C29.8594 29.5884 27.2715 27.5762 27.252 24.6753C27.2324 21.0125 27.252 17.3496 27.252 13.6868C27.252 13.4915 27.252 13.296 27.252 13.0714C26.8711 13.0714 26.5195 13.0714 26.0996 13.0714C26.0996 13.257 26.0996 13.4426 26.0996 13.6282C26.0996 17.291 26.1094 20.9539 26.0996 24.6167C26.0898 26.7069 24.877 28.3479 23.002 28.8459C20.2871 29.5687 17.709 27.5664 17.6895 24.7046C17.6699 21.0222 17.6895 17.3496 17.6797 13.6672C17.6797 13.4719 17.6797 13.2863 17.6797 13.0616C17.2793 13.0616 16.9375 13.0616 16.5273 13.0616C16.5273 13.2667 16.5273 13.4622 16.5273 13.6477C16.5273 17.3105 16.5371 20.9734 16.5273 24.6362C16.5176 26.6971 15.3066 28.3284 13.4492 28.8362C10.7441 29.5786 8.12695 27.5762 8.10742 24.7241C8.08789 21.0417 8.09766 17.3691 8.09766 13.6868C8.09766 13.4915 8.09766 13.296 8.09766 13.0616C7.60938 12.9542 6.92578 13.2277 6.75 12.5537C6.61328 12.0653 6.67188 11.5282 6.63281 11.0105C5.34375 10.6686 4.30664 11.4109 4.30664 12.7198C4.29688 19.4789 4.29688 26.2283 4.30664 32.9874C4.30664 34.1205 5 34.7847 6.1543 34.7847C10.666 34.7847 15.1699 34.7847 19.6816 34.7847C19.8477 34.7847 20.0039 34.7749 20.1699 34.7944C20.5898 34.8335 20.8242 35.0972 20.8438 35.4977C20.8633 35.8884 20.6289 36.1423 20.2578 36.2302C20.1016 36.2693 19.9355 36.2498 19.7695 36.2498C15.2578 36.2498 10.7539 36.2498 6.24219 36.2498C4.14062 36.2498 2.8418 34.9409 2.8418 32.8312C2.8418 26.1892 2.86133 19.5472 2.83203 12.9054C2.82227 10.7565 4.38477 9.34998 6.22266 9.4574C6.34961 9.46716 6.47656 9.43787 6.64258 9.4281C6.64258 8.97888 6.64258 8.54907 6.64258 8.11926C4.99023 7.69922 2.8125 8.77368 1.98242 10.5026C1.68945 11.1179 1.48438 11.8407 1.47461 12.5049C1.43555 19.391 1.44531 26.2771 1.45508 33.1632C1.46484 35.6051 3.4082 37.5684 5.85156 37.6172C7.63867 37.6562 9.43555 37.627 11.2227 37.627C19.9355 37.627 28.6387 37.627 37.3516 37.627C39.7637 37.627 41.6484 36.2009 42.0195 33.9642C42.1758 33.0167 42.0488 32.0204 42.0488 31.0144C41.668 31.0144 41.2285 31.0144 40.7207 31.0144C40.7207 31.7274 40.7305 32.4502 40.7207 33.173C40.6914 34.2377 40.2617 35.1362 39.3438 35.6637C38.8164 35.9763 38.1621 36.2107 37.5664 36.2107C32.9258 36.2595 28.2871 36.24 23.6465 36.2302C23.0605 36.2302 22.7383 35.9763 22.7285 35.5172C22.7188 35.0386 23.041 34.7749 23.6562 34.7749C28.1992 34.7749 32.7402 34.7749 37.2832 34.7749C38.6309 34.7749 39.2559 34.1595 39.2559 32.8116C39.2559 32.2256 39.2559 31.6395 39.2559 30.9753C38.8359 30.9753 38.4355 30.9851 38.0449 30.9753C37.4688 30.9656 37.2051 30.7115 37.2051 30.145C37.1953 28.3087 37.1953 26.4626 37.2051 24.6265C37.2051 24.0599 37.4688 23.8059 38.0449 23.7864C38.4355 23.7766 38.8164 23.7864 39.2363 23.7864C39.2363 23.3077 39.2363 22.8781 39.2363 22.4385C37.7617 21.9696 37.1367 21.2371 37.2051 20.0454C37.2734 19.0199 37.9961 18.2872 39.2656 18.0236C39.2656 17.8478 39.2656 17.6523 39.2656 17.4668C39.2656 13.4622 39.2559 9.4574 39.2656 5.45276C39.2754 2.74719 41.082 0.56897 43.6895 0.090332C46.5527 -0.446899 49.3457 1.46765 49.9023 4.32947C49.9316 4.45642 49.9707 4.57373 50 4.70068C50 5.60901 50 6.52722 50 7.43555C49.707 7.78723 49.3359 7.88489 48.8867 7.86536C48.1543 7.83606 47.4219 7.85559 46.6895 7.85559C45.8789 7.85559 45.6836 7.65039 45.6836 6.83972C45.6836 6.30249 45.7031 5.76526 45.6543 5.22815C45.6055 4.68115 45.1367 4.30017 44.6172 4.30994C44.0996 4.3197 43.6797 4.71045 43.6211 5.25745C43.6016 5.4137 43.6016 5.57971 43.6016 5.74573C43.6016 6.96667 43.6016 8.18762 43.6016 9.40857C43.6016 9.98486 43.3184 10.3073 42.8691 10.3073C42.4199 10.2975 42.1465 9.9751 42.1465 9.38904C42.1367 8.0509 42.127 6.72253 42.1465 5.3844C42.1758 3.92896 43.25 2.84485 44.627 2.83508C46.0156 2.82532 47.1094 3.92896 47.1484 5.40393C47.1582 5.70667 47.1484 6.00952 47.1484 6.34155C47.6367 6.34155 48.0664 6.34155 48.5352 6.34155C48.5352 5.95093 48.5547 5.57971 48.5352 5.20862C48.4375 3.57739 47.6465 2.39551 46.1523 1.75085C43.5723 0.637329 40.75 2.52246 40.7402 5.36487C40.7207 9.46716 40.7305 13.5696 40.7402 17.6719C40.7402 17.7794 40.7598 17.8868 40.7695 18.004C41.2383 18.004 41.668 18.004 42.1465 18.004C42.1465 17.291 42.1465 16.6073 42.1465 15.9236C42.1465 14.9468 42.1367 13.9701 42.1562 12.9933C42.166 12.4756 42.4297 12.1826 42.8691 12.1729C43.3281 12.1631 43.5918 12.4561 43.6113 13.0031C43.6211 13.13 43.6113 13.2667 43.6113 13.3938C43.6113 14.7612 43.6113 16.1287 43.6113 17.4961C43.6113 17.6719 43.6309 17.838 43.6406 17.9943C44.9199 18.2677 45.6152 19.0004 45.6934 20.0747C45.7715 21.1589 45.1562 21.8524 43.6211 22.4287C43.6211 22.6338 43.6211 22.839 43.6211 23.0538C43.6211 23.2784 43.6211 23.4934 43.6211 23.7571C44.0117 23.7571 44.3145 23.7571 44.627 23.7571C45.4883 23.7571 45.7031 23.972 45.7129 24.8218C45.7129 25.4176 45.7129 26.0134 45.7129 26.619C46.2305 26.619 46.6602 26.619 47.1582 26.619C47.1582 26.3748 47.1484 26.1501 47.1582 25.9255C47.1973 25.4469 47.4707 25.1831 47.9004 25.1831C48.3008 25.1929 48.5938 25.4567 48.6035 25.906C48.623 26.8827 48.623 27.8595 48.6035 28.8362C48.5938 29.266 48.2715 29.5492 47.8906 29.5492C47.5 29.5492 47.2168 29.266 47.168 28.8362C47.1484 28.6018 47.1387 28.3674 47.1289 28.1427C46.6211 28.1427 46.1816 28.1427 45.7129 28.1427C45.7129 28.8167 45.7227 29.4515 45.7129 30.0864C45.7031 30.692 45.4395 30.946 44.832 30.9558C44.4512 30.9656 44.0605 30.9558 43.6309 30.9558C43.6309 31.5809 43.6406 32.1475 43.6309 32.7139C43.6211 33.1827 43.6211 33.6614 43.5332 34.1205C42.9668 37.08 40.5938 39.0531 37.5664 39.0726C34.3613 39.0922 31.1484 39.0726 27.9453 39.0726C20.7168 39.0726 13.4883 39.0726 6.26172 39.0726C3.81836 39.0726 1.95312 38.047 0.761719 35.9177C0.410156 35.2926 0.263672 34.5599 0.0195312 33.8762C0 26.5897 0 19.2347 0 11.87ZM28.7266 21.6766C28.7266 22.7316 28.7266 23.7473 28.7266 24.7729C28.7266 24.9683 28.7559 25.1636 28.7949 25.3492C29.0488 26.619 30.1816 27.5469 31.4805 27.5469C32.7598 27.5469 33.9902 26.6483 34.127 25.3883C34.2637 24.1674 34.1562 22.9269 34.1562 21.6669C32.3789 21.6766 30.6016 21.6766 28.7266 21.6766ZM9.58203 21.6766C9.58203 21.911 9.58203 22.0967 9.58203 22.2725C9.58203 23.171 9.55273 24.0599 9.5918 24.9585C9.66992 26.4431 10.9102 27.5762 12.3652 27.5566C13.8398 27.5273 15.0039 26.3845 15.0625 24.8804C15.082 24.1771 15.0723 23.4836 15.0723 22.7804C15.0723 22.4189 15.0723 22.0477 15.0723 21.6766C13.2051 21.6766 11.418 21.6766 9.58203 21.6766ZM19.1543 21.6669C19.1543 21.8817 19.1543 22.0477 19.1543 22.2041C19.1543 23.132 19.1152 24.0599 19.1738 24.9878C19.2715 26.4529 20.502 27.5664 21.9375 27.5469C23.4121 27.5273 24.5742 26.3845 24.6426 24.8804C24.6621 24.4115 24.6523 23.9329 24.6523 23.4641C24.6523 22.8683 24.6523 22.2725 24.6523 21.6669C22.7871 21.6669 21 21.6669 19.1543 21.6669ZM38.6992 29.5101C40.5449 29.5101 42.3711 29.5101 44.1875 29.5101C44.1875 28.0939 44.1875 26.7167 44.1875 25.3102C42.3418 25.3102 40.5352 25.3102 38.6992 25.3102C38.6992 26.7264 38.6992 28.1134 38.6992 29.5101ZM9.60156 16.2361C11.4375 16.2361 13.2246 16.2361 15.0234 16.2361C15.0234 15.1714 15.0234 14.1263 15.0234 13.0909C13.1855 13.0909 11.3887 13.0909 9.60156 13.0909C9.60156 14.1556 9.60156 15.1812 9.60156 16.2361ZM19.1836 13.0812C19.1836 14.1556 19.1836 15.1812 19.1836 16.2361C21.0098 16.2361 22.8066 16.2361 24.6133 16.2361C24.6133 15.1714 24.6133 14.1361 24.6133 13.0812C22.7969 13.0812 21.0195 13.0812 19.1836 13.0812ZM28.7559 16.2361C30.582 16.2361 32.3691 16.2361 34.1953 16.2361C34.1953 15.1714 34.1953 14.1459 34.1953 13.0812C32.3691 13.0812 30.582 13.0812 28.7559 13.0812C28.7559 14.1459 28.7559 15.1714 28.7559 16.2361ZM15.0527 17.7697C13.2246 17.7697 11.418 17.7697 9.61133 17.7697C9.61133 18.5803 9.61133 19.3617 9.61133 20.1431C11.4375 20.1431 13.2441 20.1431 15.0527 20.1431C15.0527 19.3324 15.0527 18.551 15.0527 17.7697ZM24.6133 17.7697C22.7773 17.7697 20.9805 17.7697 19.1738 17.7697C19.1738 18.5901 19.1738 19.3617 19.1738 20.1626C20.9902 20.1626 22.7871 20.1626 24.6133 20.1626C24.6133 19.3422 24.6133 18.5608 24.6133 17.7697ZM34.1953 17.7697C32.3594 17.7697 30.5625 17.7697 28.7559 17.7697C28.7559 18.5901 28.7559 19.3617 28.7559 20.1431C30.5918 20.1431 32.3887 20.1431 34.1953 20.1431C34.1953 19.3226 34.1953 18.551 34.1953 17.7697ZM41.375 20.9539C42.0586 20.9539 42.7422 20.9636 43.4258 20.9539C43.8945 20.9441 44.207 20.6608 44.207 20.2604C44.207 19.8599 43.9043 19.5668 43.4355 19.5668C42.1172 19.557 40.7988 19.557 39.4805 19.5668C38.9629 19.5668 38.6699 19.8501 38.6797 20.2799C38.6895 20.6803 38.9922 20.9539 39.4707 20.9539C40.1055 20.9636 40.7402 20.9539 41.375 20.9539ZM32.4082 11.5673C32.4082 10.8933 32.4277 10.2682 32.3984 9.65283C32.3789 9.15466 31.9785 8.79321 31.5195 8.76392C31.0801 8.74438 30.6113 9.07654 30.582 9.51599C30.543 10.1899 30.5723 10.8738 30.5723 11.5575C31.207 11.5673 31.7832 11.5673 32.4082 11.5673ZM22.8359 11.5673C22.8359 10.8933 22.8555 10.278 22.8262 9.6626C22.7969 9.1449 22.3867 8.76392 21.9082 8.76392C21.459 8.76392 21.0293 9.10583 21.0098 9.55505C20.9805 10.2194 21 10.8738 21 11.5575C21.625 11.5673 22.2012 11.5673 22.8359 11.5673ZM11.4277 11.5575C12.0723 11.5575 12.6484 11.5575 13.2637 11.5575C13.2637 10.8933 13.293 10.2682 13.2539 9.6333C13.2246 9.1156 12.7852 8.74438 12.3066 8.76392C11.8574 8.77368 11.4473 9.12537 11.4277 9.58447C11.3984 10.2291 11.4277 10.8835 11.4277 11.5575ZM42.1172 22.458C41.6484 22.458 41.209 22.458 40.7695 22.458C40.7695 22.9269 40.7695 23.3567 40.7695 23.7864C41.2285 23.7864 41.6582 23.7864 42.1172 23.7864C42.1172 23.3274 42.1172 22.8976 42.1172 22.458Z" fill="#01A3DE" fill-opacity="1.000000" fill-rule="nonzero"/>
	<path id="Vector" d="M12.3066 4.44678C12.8242 4.44678 13.3418 4.43701 13.8691 4.44678C14.3672 4.45654 14.6699 4.74951 14.6699 5.17932C14.6699 5.60901 14.3672 5.9021 13.8691 5.91187C12.8438 5.92163 11.8184 5.92163 10.8027 5.91187C10.3145 5.91187 9.99219 5.59924 9.99219 5.17932C9.99219 4.75928 10.3145 4.45654 10.8027 4.44678C11.3008 4.43701 11.7988 4.44678 12.3066 4.44678Z" fill="#01A3DE" fill-opacity="1.000000" fill-rule="nonzero"/>
	<path id="Vector" d="M31.4824 5.91187C30.9648 5.91187 30.4473 5.92163 29.9199 5.91187C29.459 5.9021 29.1562 5.60913 29.1367 5.20862C29.1172 4.7887 29.4395 4.45654 29.9199 4.45654C30.9551 4.44678 32 4.44678 33.0352 4.45654C33.5234 4.46631 33.8164 4.76917 33.8066 5.20862C33.7969 5.62866 33.5039 5.9021 33.0352 5.91187C32.5273 5.9314 32 5.92163 31.4824 5.91187Z" fill="#01A3DE" fill-opacity="1.000000" fill-rule="nonzero"/>
	<path id="Vector" d="M21.9355 5.92163C21.418 5.92163 20.9004 5.9314 20.373 5.92163C19.8848 5.91187 19.5625 5.6189 19.5625 5.19885C19.5625 4.77893 19.8848 4.46631 20.3633 4.46631C21.3887 4.45654 22.4141 4.45654 23.4297 4.46631C23.9277 4.47607 24.2305 4.75928 24.2305 5.19885C24.2305 5.62866 23.9277 5.92163 23.4395 5.9314C22.9414 5.92163 22.4336 5.92163 21.9355 5.92163Z" fill="#01A3DE" fill-opacity="1.000000" fill-rule="nonzero"/>
</svg>
