<svg width="50.000000" height="49.931641" viewBox="0 0 50 49.9316" fill="none" xmlns="http://www.w3.org/2000/svg" xmlns:xlink="http://www.w3.org/1999/xlink">
	<desc>
			Created with Pixso.
	</desc>
	<defs/>
	<path id="Vector" d="M0.00976562 20.1914C1.37695 20.1621 2.73438 20.1426 4.10156 20.0938C4.19922 20.0938 4.36523 19.9473 4.38477 19.8496C4.92188 17.7017 5.7793 15.7001 6.94141 13.7961C5.96484 12.7515 4.98828 11.7164 4.0625 10.7303C6.29688 8.49438 8.52344 6.26831 10.7695 4.03247C11.7461 4.9502 12.7715 5.91687 13.7578 6.83459C15.0254 6.24878 16.2461 5.6532 17.4961 5.11621C18.1797 4.82324 18.9121 4.62805 19.625 4.43274C19.9961 4.33508 20.1523 4.19836 20.1523 3.78833C20.1621 2.53857 20.2207 1.28882 20.2695 0C23.4238 0 26.5566 0 29.7891 0C29.7891 0.458862 29.7793 0.927612 29.7891 1.39624C29.8086 2.24561 29.8281 3.08533 29.8867 3.93481C29.8965 4.08118 30.0332 4.31555 30.1602 4.34485C32.2891 4.8916 34.2812 5.74109 36.1836 6.90295C37.2285 5.92664 38.2637 4.9502 39.2793 4.00317C41.5156 6.23901 43.7324 8.45532 45.9766 10.701C45.0391 11.6969 44.0645 12.7417 43.1855 13.679C43.8594 15.251 44.5234 16.7448 45.1465 18.2582C45.3516 18.7463 45.4492 19.2833 45.6152 19.791C45.6543 19.9082 45.8105 20.0742 45.9082 20.084C47.2754 20.1328 48.6328 20.1523 50 20.1816C50 23.3744 50 26.5574 50 29.75C48.6328 29.7793 47.2656 29.7988 45.9082 29.8477C45.8105 29.8477 45.6445 29.9941 45.625 30.0918C45.0879 32.23 44.2305 34.2413 43.0684 36.1355C44.0547 37.1803 45.0195 38.2152 45.9473 39.2013C45.0098 40.1387 44.084 41.0662 43.1367 42.0133C42.8828 41.7399 42.5703 41.3982 42.1992 40.9978C42.7754 40.4706 43.4004 39.9043 44.0449 39.3185C43.0586 38.264 42.1504 37.2974 41.2715 36.3699C41.877 35.2373 42.5605 34.173 43.0391 33.0209C43.5859 31.6735 43.9766 30.2578 44.3867 28.8616C44.4941 28.4807 44.6309 28.3734 45.002 28.3832C46.1523 28.4027 47.3047 28.3929 48.5059 28.3929C48.5059 26.0886 48.5059 23.9016 48.5059 21.6656C47.4707 21.6266 46.416 21.5875 45.3711 21.5583C44.5234 21.5388 44.5137 21.5486 44.3281 20.7186C43.791 18.3461 42.873 16.1394 41.5352 14.1085C41.4375 13.9622 41.3496 13.8059 41.2324 13.6204C42.1406 12.6538 43.0586 11.6774 43.9277 10.7499C42.3555 9.18762 40.8125 7.64502 39.2305 6.06323C38.3223 6.91272 37.3555 7.82068 36.3887 8.73853C35.6172 8.28943 34.877 7.82068 34.1055 7.41064C32.4453 6.52222 30.6777 5.9364 28.832 5.56531C28.5195 5.50671 28.4316 5.37976 28.4414 5.08691C28.4512 3.88599 28.4512 2.68506 28.4512 1.4646C26.1367 1.4646 23.9609 1.4646 21.7246 1.4646C21.6953 2.24561 21.6562 3.0365 21.627 3.81763C21.6074 4.35461 21.7734 5.03809 21.5098 5.37976C21.2461 5.71179 20.543 5.70203 20.0254 5.82898C17.7598 6.42456 15.6602 7.40088 13.6895 8.75806C12.7129 7.84021 11.7461 6.93225 10.8184 6.06323C9.25586 7.62549 7.71289 9.16809 6.12109 10.7596C6.96094 11.6481 7.86914 12.6147 8.78711 13.5911C8.36719 14.3136 7.91797 15.0166 7.52734 15.7391C6.63867 17.3989 6.00391 19.1466 5.65234 21.0017C5.57422 21.4119 5.42773 21.5583 4.99805 21.5486C3.84766 21.5193 2.69531 21.5388 1.51367 21.5388C1.51367 23.8528 1.51367 26.0203 1.51367 28.2855C1.65039 28.2855 1.80664 28.2855 1.96289 28.2855C3.03711 28.3148 4.11133 28.3441 5.18359 28.3929C5.32031 28.4027 5.55469 28.5491 5.57422 28.6663C6.13086 31.4099 7.19531 33.9387 8.81641 36.282C7.88867 37.2681 6.98047 38.2445 6.07227 39.2111C7.64453 40.7733 9.1875 42.3062 10.7695 43.8879C11.707 43.0092 12.6738 42.1012 13.6602 41.1736C14.3633 41.5837 15.0449 42.0133 15.748 42.4038C17.457 43.3314 19.2832 43.9661 21.1875 44.3468C21.5293 44.4152 21.5977 44.5519 21.5977 44.8643C21.5879 46.0457 21.5879 47.2368 21.5879 48.4476C23.9023 48.4476 26.0879 48.4476 28.3242 48.4476C28.3633 47.2759 28.4121 46.1042 28.4219 44.9424C28.4219 44.5812 28.5 44.4054 28.9004 44.3273C31.4785 43.8196 33.8613 42.814 36.0566 41.3494C36.1543 41.2908 36.252 41.2322 36.3691 41.1638C37.3457 42.0817 38.3125 42.9896 39.3184 43.927C39.9141 43.3021 40.4805 42.7065 41.0762 42.0719C41.4375 42.4722 41.75 42.814 42.0234 43.1166C41.1445 43.9954 40.2168 44.9229 39.2598 45.8798C38.2832 44.9717 37.248 43.9954 36.291 43.097C34.8086 43.7512 33.3926 44.4054 31.957 45.001C31.3906 45.2354 30.7754 45.3524 30.1895 45.5477C30.0723 45.5868 29.9062 45.7333 29.8965 45.8407C29.8477 47.2075 29.8281 48.5647 29.7988 49.9316C26.6055 49.9316 23.4238 49.9316 20.2305 49.9316C20.2109 48.8577 20.2109 47.7935 20.1719 46.7194C20.1328 45.6454 20.123 45.6356 19.0879 45.333C17.2422 44.7861 15.4941 44.0149 13.8359 42.9994C12.7812 43.9856 11.7461 44.9619 10.7207 45.9188C8.48438 43.6731 6.26758 41.4568 4.02344 39.2111C4.97852 38.1957 5.95508 37.1608 6.93164 36.1062C5.76953 34.2023 4.91211 32.2008 4.375 30.0527C4.3457 29.9551 4.18945 29.8184 4.0918 29.8086C2.72461 29.7598 1.36719 29.7402 0 29.7109C0.00976562 26.5769 0.00976562 23.3842 0.00976562 20.1914Z" fill="#01A3DE" fill-opacity="1.000000" fill-rule="nonzero"/>
	<path id="Vector" d="M7.42969 24.9561C7.44922 15.2705 15.3477 7.39111 25.0234 7.40088C34.709 7.42041 42.5898 15.3192 42.5801 24.9951C42.5605 34.6807 34.6602 42.5601 24.9844 42.5503C15.2988 42.5405 7.41016 34.632 7.42969 24.9561ZM41.1152 24.9951C41.125 16.1199 33.8887 8.87524 25.0137 8.86548C16.1484 8.86548 8.92383 16.0613 8.89453 24.9365C8.86523 33.8118 16.0898 41.0662 24.9746 41.0857C33.8496 41.1052 41.1055 33.8801 41.1152 24.9951Z" fill="#01A3DE" fill-opacity="1.000000" fill-rule="nonzero"/>
	<path id="Vector" d="M16.1797 15.1437C15.8574 14.7823 15.5547 14.4407 15.252 14.0989C20.2305 9.40259 29.0977 8.67029 35.1406 14.4211C41.0273 20.0255 41.1543 29.3694 35.4043 35.2666C29.75 41.0663 20.3086 41.0663 14.5879 35.2666C8.73047 29.3206 9.30664 20.377 14.1191 15.2218C14.4609 15.5342 14.8125 15.8369 15.1543 16.1493C9.87109 22.0955 11.1992 30.8438 16.7656 35.2666C22.1152 39.5139 29.7402 39.0354 34.4961 34.1047C39.2031 29.2229 39.418 21.5974 35.0137 16.4227C30.4629 11.0526 22.0469 10.0177 16.1797 15.1437Z" fill="#01A3DE" fill-opacity="1.000000" fill-rule="nonzero"/>
	<path id="Vector" d="M23.834 24.3605C25.25 22.9351 26.5977 21.5583 27.9648 20.2207C29.4199 18.7952 31.7617 19.42 32.2598 21.363C32.4844 22.2418 32.3184 23.0717 31.6836 23.7161C29.6641 25.7665 27.6328 27.8071 25.5723 29.8282C24.5859 30.7948 23.0723 30.7753 22.0859 29.8185C20.8262 28.598 19.5781 27.358 18.3574 26.0887C17.3809 25.0732 17.4297 23.5013 18.4062 22.5249C19.3926 21.5388 20.9434 21.5095 21.9688 22.4858C22.5938 23.0717 23.1797 23.6965 23.834 24.3605ZM23.8535 26.3914C23.6875 26.2351 23.5703 26.1278 23.4629 26.0106C22.6523 25.21 21.8613 24.3898 21.041 23.599C20.416 22.9937 19.4805 23.1693 19.207 23.9309C19.0312 24.4288 19.1777 24.8488 19.5488 25.21C20.6602 26.3132 21.7539 27.4165 22.8574 28.5199C23.5605 29.2229 24.1172 29.2229 24.8203 28.5199C26.6758 26.6746 28.5215 24.8195 30.375 22.9644C30.4922 22.8472 30.6094 22.73 30.6973 22.603C31.166 21.9 30.7168 20.9139 29.8789 20.9237C29.5371 20.9237 29.127 21.1482 28.873 21.3923C27.1836 23.0326 25.543 24.7023 23.8535 26.3914Z" fill="#01A3DE" fill-opacity="1.000000" fill-rule="nonzero"/>
	<path id="Vector" d="M27.9727 14.0698C28.4512 14.0698 28.9004 14.0698 29.3691 14.0698C29.3691 14.5482 29.3691 15.0072 29.3691 15.4856C28.9004 15.4856 28.4512 15.4856 27.9727 15.4856C27.9727 15.0364 27.9727 14.5775 27.9727 14.0698Z" fill="#01A3DE" fill-opacity="1.000000" fill-rule="nonzero"/>
	<path id="Vector" d="M32.3184 15.5537C32.3184 16.0321 32.3184 16.4618 32.3184 16.9402C31.8496 16.9402 31.3906 16.9402 30.9023 16.9402C30.9023 16.491 30.9023 16.0419 30.9023 15.5537C31.3711 15.5537 31.8398 15.5537 32.3184 15.5537Z" fill="#01A3DE" fill-opacity="1.000000" fill-rule="nonzero"/>
</svg>
