<svg width="50.009766" height="49.980469" viewBox="0 0 50.0098 49.9805" fill="none" xmlns="http://www.w3.org/2000/svg" xmlns:xlink="http://www.w3.org/1999/xlink">
	<desc>
			Created with Pixso.
	</desc>
	<defs/>
	<path id="Vector" d="M0 42.0898C0.078125 41.7773 0.146484 41.4648 0.234375 41.1523C0.605469 39.7754 1.32812 38.6328 2.38281 37.6758C7.08984 33.418 11.7871 29.1602 16.4941 24.9121C19.0234 22.6172 21.5527 20.3223 24.1016 18.0469C24.375 17.8027 24.4238 17.6074 24.3066 17.2559C21.7969 9.52148 26.7188 1.48438 34.7461 0.175781C35.0781 0.117188 35.4102 0.0585938 35.7422 0C36.4551 0 37.1777 0 37.8906 0C38.5547 0.117188 39.2285 0.244141 39.8926 0.361328C40.5469 0.478516 41.0547 0.78125 41.25 1.45508C41.4453 2.12891 41.1426 2.63672 40.6738 3.10547C39.0918 4.67773 37.5195 6.25977 35.9375 7.82227C35.7324 8.02734 35.6543 8.20312 35.7227 8.49609C36.0352 9.99023 36.3184 11.4941 36.6406 12.9883C36.6699 13.1348 36.8555 13.3203 37.002 13.3496C38.4961 13.6719 40 13.9453 41.4941 14.2676C41.7969 14.3262 41.9629 14.2578 42.168 14.0527C43.7598 12.4414 45.3613 10.8496 46.9629 9.24805C47.4121 8.79883 47.9102 8.56445 48.5449 8.74023C49.1797 8.91602 49.502 9.38477 49.6191 10C49.7559 10.7031 49.873 11.4062 50.0098 12.0996C50.0098 12.8125 50.0098 13.5352 50.0098 14.248C49.8145 15.1855 49.6777 16.1328 49.4043 17.041C47.9004 22.1191 43.3203 25.8203 38.0371 26.2793C36.2402 26.4355 34.4922 26.2598 32.793 25.6934C32.4023 25.5664 32.1875 25.6348 31.9238 25.9277C26.8457 31.5527 21.7578 37.1777 16.6797 42.793C15.2539 44.375 13.8184 45.9473 12.3926 47.5293C11.2305 48.8281 9.81445 49.6484 8.08594 49.9023C8.02734 49.9121 7.96875 49.9512 7.91992 49.9805C7.36328 49.9805 6.81641 49.9805 6.25977 49.9805C6.17188 49.9512 6.07422 49.9121 5.98633 49.8926C3.03711 49.375 1.14258 47.6562 0.253906 44.8242C0.15625 44.502 0.0878906 44.1699 0 43.8477C0 43.2617 0 42.6758 0 42.0898ZM36.6992 2.94922C36.416 2.94922 36.2695 2.93945 36.1328 2.94922C29.0723 3.4668 24.6484 10.7031 27.4121 17.2266C27.832 18.2227 27.7344 18.7012 26.9336 19.4238C21.543 24.3066 16.1426 29.1895 10.752 34.0625C8.59375 36.0156 6.41602 37.959 4.27734 39.9316C3.08594 41.0254 2.67578 42.4121 3.06641 43.9746C3.44727 45.4785 4.42383 46.4844 5.92773 46.9043C7.69531 47.3926 9.13086 46.7969 10.3418 45.459C17.0703 38.0078 23.8086 30.5664 30.5469 23.1152C31.3281 22.2559 31.748 22.168 32.8223 22.6074C38.252 24.873 44.4141 22.2168 46.4355 16.7285C46.8262 15.6641 47.0508 14.5703 47.0605 13.3301C46.8555 13.5156 46.7285 13.6328 46.6016 13.7598C45.5762 14.7852 44.541 15.8008 43.5352 16.8359C43.0566 17.3242 42.5195 17.4707 41.8555 17.334C39.6875 16.8848 37.5195 16.4551 35.3516 16.0254C34.5312 15.8594 34.1504 15.4883 33.9844 14.6582C33.6035 12.7637 33.291 10.8496 32.8125 8.97461C32.4707 7.65625 32.7441 6.70898 33.7793 5.83008C34.7852 4.98047 35.6641 3.97461 36.6992 2.94922Z" fill="#01A3DE" fill-opacity="1.000000" fill-rule="nonzero"/>
	<path id="Vector" d="M7.25586 41.2987C8.05664 41.3085 8.70117 41.953 8.69141 42.7635C8.69141 43.5643 8.03711 44.2186 7.23633 44.2284C6.43555 44.2284 5.74219 43.5253 5.76172 42.7343C5.79102 41.9335 6.46484 41.2889 7.25586 41.2987Z" fill="#01A3DE" fill-opacity="1.000000" fill-rule="nonzero"/>
</svg>
