<svg width="233.000000" height="142.000000" viewBox="0 0 233 142" fill="none" xmlns="http://www.w3.org/2000/svg" xmlns:xlink="http://www.w3.org/1999/xlink">
	<desc>
			Created with Pixso.
	</desc>
	<defs/>
	<path id="Ellipse 33" d="M0 142C0 131.612 0.916016 121.485 2.65234 111.731C14.0312 47.8489 60.6816 0 116.5 0C169.42 0 214.098 43.0076 228.293 101.911C231.355 114.625 233 128.078 233 142C233 128.533 231.246 116.161 227.982 104.935C213.457 54.9586 169.039 27.7073 116.5 27.7073C62.0254 27.7073 16.2812 60.976 3.53516 112.378C1.22656 121.688 0 131.591 0 142ZM5.99219 100.82Q6.00781 100.781 6.01562 100.756Q7.04883 97.9069 8.23438 95.1132Q12.8594 84.213 19.5293 74.7562Q25.625 66.1119 33.4316 58.6736Q38.6387 53.7124 44.3887 49.4918Q56.4043 40.6733 70.791 35.0873Q75.1113 33.41 79.5332 32.0685Q97.2031 26.7073 116.5 26.7073Q154.453 26.7073 182.213 43.5289Q191.447 49.1254 199.555 56.5836Q209.607 65.8323 216.727 76.9585Q220.986 83.6135 224.193 90.9402Q223.572 88.9908 222.9 87.0551Q214.375 62.4883 199.045 43.3829Q198.578 42.8015 198.105 42.2251Q182.736 23.4926 163 12.8955Q162.197 12.465 161.389 12.0479Q148.045 5.16907 133.916 2.57324Q125.354 1 116.5 1Q107.646 1 99.084 2.57324Q84.9531 5.16907 71.6113 12.0479Q70.8047 12.4641 70.0039 12.8937Q50.2656 23.491 34.8945 42.2251Q34.4277 42.7938 33.9688 43.3674Q18.6289 62.478 10.0996 87.0551Q8.33203 92.147 6.9082 97.333Q6.43164 99.071 5.99219 100.82Z" fill="#0FA7E0" fill-opacity="1.000000" fill-rule="evenodd"/>
</svg>
