<svg width="1920" height="1031" viewBox="0 0 1920 1031" fill="none" xmlns="http://www.w3.org/2000/svg">
<path d="M1161.34 17.6281C725.428 -40.3863 399.497 45.614 -6.41788 263.507C-305.688 452.081 -724.666 722.882 -6.41788 297.491C891.393 -234.248 1545.26 243.517 1033.36 307.486C334.606 394.806 63.5676 449.416 257.526 589.347C340.728 649.372 613.452 715.818 991.372 713.286C1484.74 713.286 1672 677.304 1926 972C2073.15 1142.73 2014 898 1926 794C1855.6 710.8 1758 636.877 1697.22 621.331C1520 576 1203.33 629.327 991.372 677.304C779.416 725.28 495.476 669.307 487.478 529.376C479.48 389.445 875.396 377.451 1063.36 333.473C1251.32 289.495 1807.2 103.585 1161.34 17.6281Z" fill="#E9F7FF"/>
</svg>
