<svg width="17.937500" height="17.939209" viewBox="0 0 17.9375 17.9392" fill="none" xmlns="http://www.w3.org/2000/svg" xmlns:xlink="http://www.w3.org/1999/xlink">
	<desc>
			Created with Pixso.
	</desc>
	<defs/>
	<path id="Vector" d="M17.0664 12.0479L12.8594 10.2444C12.6406 10.1499 12.3984 10.1118 12.1602 10.1338C11.9219 10.1555 11.6953 10.2368 11.4961 10.3699L9.24609 11.8696C7.87109 11.2007 6.75781 10.0928 6.08203 8.72046L6.08203 8.72046L7.57812 6.43677C7.70703 6.23853 7.78516 6.01099 7.80859 5.7749C7.82812 5.53857 7.78906 5.30103 7.69531 5.08301L5.89062 0.871338C5.76953 0.585449 5.55469 0.347168 5.28516 0.191895C5.01562 0.0366211 4.70312 -0.0268555 4.39453 0.010498C3.17969 0.166504 2.06641 0.759277 1.25781 1.67773C0.449219 2.59619 0 3.77783 0 5.00171C0 12.1355 5.80469 17.9392 12.9375 17.9392C14.1602 17.938 15.3438 17.4912 16.2617 16.6824C17.1797 15.8735 17.7734 14.7581 17.9297 13.5439C17.9648 13.2351 17.9023 12.9224 17.7461 12.6528C17.5938 12.3831 17.3555 12.1709 17.0664 12.0479Z" fill="#21AEE2" fill-opacity="1.000000" fill-rule="nonzero"/>
</svg>
