<svg width="871" height="487" viewBox="0 0 871 487" fill="none" xmlns="http://www.w3.org/2000/svg">
<g filter="url(#filter0_d_12001_11)">
<path d="M30.0859 243C30.0859 358.98 164.832 453 331.049 453C497.267 453 840.086 358.98 840.086 243C840.086 127.02 497.267 33 331.049 33C164.832 33 30.0859 127.02 30.0859 243Z" fill="white"/>
</g>
<path d="M866.086 198C842.578 178.434 809.483 155.441 769.268 132.452C693.136 84.4044 594.575 33.2931 478.805 13.4618C319.488 -13.829 262.497 -0.720679 129.086 62.8453C354.244 -44.4347 614.492 43.9762 769.268 132.452C807.38 156.505 839.871 179.791 866.086 198Z" fill="#01A3DE"/>
<path fill-rule="evenodd" clip-rule="evenodd" d="M508.91 446.721C399.903 470.464 190.237 516.132 27.9023 340.191C94.4432 412.309 146.558 446.361 239.731 471.837C300.553 488.467 420.901 477.013 524.427 443.367C519.517 444.41 514.338 445.538 508.91 446.721Z" fill="#01A3DE"/>
<defs>
<filter id="filter0_d_12001_11" x="0.0859375" y="7" width="870" height="480" filterUnits="userSpaceOnUse" color-interpolation-filters="sRGB">
<feFlood flood-opacity="0" result="BackgroundImageFix"/>
<feColorMatrix in="SourceAlpha" type="matrix" values="0 0 0 0 0 0 0 0 0 0 0 0 0 0 0 0 0 0 127 0" result="hardAlpha"/>
<feOffset dy="4"/>
<feGaussianBlur stdDeviation="15"/>
<feComposite in2="hardAlpha" operator="out"/>
<feColorMatrix type="matrix" values="0 0 0 0 0.483289 0 0 0 0 0.613083 0 0 0 0 0.704167 0 0 0 0.2 0"/>
<feBlend mode="normal" in2="BackgroundImageFix" result="effect1_dropShadow_12001_11"/>
<feBlend mode="normal" in="SourceGraphic" in2="effect1_dropShadow_12001_11" result="shape"/>
</filter>
</defs>
</svg>
