<svg width="769" height="501" viewBox="0 0 769 501" fill="none" xmlns="http://www.w3.org/2000/svg">
<g filter="url(#filter0_d_10193_1441)">
<path d="M739 247.5C739 368.727 621.056 467 475.564 467C330.073 467 30 368.727 30 247.5C30 126.273 330.073 28 475.564 28C621.056 28 739 126.273 739 247.5Z" fill="white"/>
</g>
<path d="M7 172C27.5736 155.003 56.5371 135.029 91.7326 115.059C158.36 73.321 244.618 28.9213 345.937 11.6941C485.366 -12.0131 535.243 -0.626045 652 54.5929C454.949 -38.5999 227.187 38.2015 91.7326 115.059C58.3775 135.954 29.9422 156.182 7 172Z" fill="#01A3DE"/>
<path fill-rule="evenodd" clip-rule="evenodd" d="M506.103 494H481.185C428.556 492.451 364.349 481.547 306.201 462.649C310.502 463.563 315.037 464.551 319.791 465.586C415.247 486.378 598.836 526.367 741 372.346C682.749 435.467 637.111 465.278 555.535 487.583C542.041 491.272 525.201 493.383 506.103 494Z" fill="#01A3DE"/>
<defs>
<filter id="filter0_d_10193_1441" x="0" y="2" width="769" height="499" filterUnits="userSpaceOnUse" color-interpolation-filters="sRGB">
<feFlood flood-opacity="0" result="BackgroundImageFix"/>
<feColorMatrix in="SourceAlpha" type="matrix" values="0 0 0 0 0 0 0 0 0 0 0 0 0 0 0 0 0 0 127 0" result="hardAlpha"/>
<feOffset dy="4"/>
<feGaussianBlur stdDeviation="15"/>
<feComposite in2="hardAlpha" operator="out"/>
<feColorMatrix type="matrix" values="0 0 0 0 0.483289 0 0 0 0 0.613083 0 0 0 0 0.704167 0 0 0 0.2 0"/>
<feBlend mode="normal" in2="BackgroundImageFix" result="effect1_dropShadow_10193_1441"/>
<feBlend mode="normal" in="SourceGraphic" in2="effect1_dropShadow_10193_1441" result="shape"/>
</filter>
</defs>
</svg>
