<svg width="205.000000" height="410.000000" viewBox="0 0 205 410" fill="none" xmlns="http://www.w3.org/2000/svg" xmlns:xlink="http://www.w3.org/1999/xlink">
	<desc>
			Created with Pixso.
	</desc>
	<defs/>
	<path id="Ellipse 33" d="M205 410C193.648 410 182.715 408.769 172.254 406.416C92.3789 388.452 40 305.105 40 205C40 107.878 83.4141 26.5312 162.672 5.36377C175.809 1.85547 189.93 0 205 0C190.09 0 175.551 1.5918 161.547 4.61475C69.1992 24.5459 0 106.692 0 205C0 306.701 74.0586 391.105 171.188 407.225C182.188 409.05 193.484 410 205 410ZM158.914 403.805Q147.895 400.196 137.414 394.778Q134.184 393.106 131.035 391.282Q104.965 376.16 84.9609 350.573Q62.9219 322.379 51.0469 285.099Q39 247.279 39 205Q39 162.17 49.9141 124.923Q60.9531 87.2637 81.9531 59.4409Q99.0859 36.7402 121.547 22.3652Q127.602 18.4893 134.047 15.2183Q137.91 13.2568 141.879 11.5327Q144.859 10.2373 147.898 9.07617Q136.594 12.3784 125.594 17.0308Q108.426 24.2925 93.1016 34.3584Q75.7461 45.7563 60.75 60.75Q45.7539 75.7451 34.3555 93.1016Q24.293 108.427 17.0312 125.594Q9.87891 142.507 5.91797 160.137Q1 182.016 1 205Q1 227.997 5.92188 249.886Q9.88281 267.504 17.0312 284.406Q24.3047 301.6 34.3867 316.946Q45.7773 334.276 60.75 349.25Q75.75 364.251 93.1172 375.653Q108.438 385.712 125.594 392.969Q141.918 399.874 158.914 403.805Z" fill="#0FA7E0" fill-opacity="1.000000" fill-rule="evenodd"/>
</svg>
