<svg width="2277.125000" height="185.000000" viewBox="0 0 2277.12 185" fill="none" xmlns="http://www.w3.org/2000/svg" xmlns:xlink="http://www.w3.org/1999/xlink">
	<desc>
			Created with Pixso.
	</desc>
	<defs/>
	<path id="Vector 12" d="M0 109C104 51 301 0 624 0C947 0 1167 159 1937 159C2553 159 2193.67 176.333 1937 185L0 185L0 109Z" fill="#E9F7FF" fill-opacity="1.000000" fill-rule="evenodd"/>
	<path id="Vector 7" d="M0 159C104 101 301 20 624 20C947 20 1167 159 1937 159C2553 159 2193.67 176.333 1937 185L0 185L0 159Z" fill="#FFFFFF" fill-opacity="1.000000" fill-rule="evenodd"/>
	<path id="Vector 8" d="M375 38.3589C498 17.3589 542 27.4453 645 76.3589C471.168 -6.19238 270.242 61.8384 150.75 129.92C209.527 92.9482 285.621 53.6187 375 38.3589ZM150.75 129.92C121.324 148.429 96.2383 166.347 76 180.358C94.1484 165.303 119.703 147.609 150.75 129.92Z" fill="#01A3DE" fill-opacity="1.000000" fill-rule="evenodd"/>
</svg>
