<svg width="355.000000" height="177.000000" viewBox="0 0 355 177" fill="none" xmlns="http://www.w3.org/2000/svg" xmlns:xlink="http://www.w3.org/1999/xlink">
	<desc>
			Created with Pixso.
	</desc>
	<defs/>
	<path id="Ellipse 33" d="M0 177C0 166.463 1.23047 156.341 3.57812 146.694C20.082 78.8745 91.6758 34.5366 177.5 34.5366C260.633 34.5366 330.418 71.1709 349.707 138.121C353.164 150.119 355 163.091 355 177C355 163.312 353.441 149.985 350.492 137.189C332.379 58.6055 261.805 0 177.5 0C90.1562 0 17.543 62.9116 2.75391 145.773C0.945312 155.91 0 166.345 0 177ZM6.17188 134.421Q9.04297 126.331 13.0625 118.583Q14.4492 115.906 15.957 113.3Q29.0859 90.623 51.375 73.249Q75.8047 54.2046 108.105 43.9443Q140.871 33.5366 177.5 33.5366Q214.605 33.5366 246.871 42.9663Q279.504 52.5024 303.613 70.6484Q323.418 85.5537 335.91 105.125Q339.176 110.241 341.941 115.676Q343.707 119.142 345.25 122.705Q345.68 123.696 346.09 124.694Q343.527 116.501 340.129 108.494Q333.938 93.8901 325.383 80.8311Q315.438 65.6465 302.305 52.5503Q289.496 39.7769 274.695 30.0283Q261.27 21.1851 246.203 14.8311Q231.676 8.70361 216.535 5.29102Q197.5 1 177.5 1Q157.5 1 138.465 5.29102Q123.324 8.70361 108.797 14.8311Q93.7266 21.187 80.2969 30.0332Q65.5 39.7798 52.6953 52.5503Q39.5469 65.6597 29.5977 80.8608Q21.0547 93.9072 14.8711 108.494Q9.47266 121.222 6.17188 134.421Z" fill="#0FA7E0" fill-opacity="1.000000" fill-rule="evenodd"/>
</svg>
