<svg width="21.472656" height="50.000000" viewBox="0 0 21.4727 50" fill="none" xmlns="http://www.w3.org/2000/svg" xmlns:xlink="http://www.w3.org/1999/xlink">
	<desc>
			Created with Pixso.
	</desc>
	<defs/>
	<path id="Vector" d="M21.4727 15.4207C21.4727 19.9785 21.4727 24.5266 21.4727 29.0845C21.2656 29.5139 21.0508 29.9434 20.8555 30.3826C20.8164 30.4802 20.8164 30.6266 20.8555 30.7242C21.0508 31.1633 21.2656 31.5928 21.4727 32.0222C21.4727 33.0958 21.4727 34.1694 21.4727 35.243C21.2656 35.6725 21.0508 36.1019 20.8555 36.5411C20.8164 36.6387 20.8164 36.785 20.8555 36.8827C21.0508 37.3219 21.2656 37.7513 21.4727 38.1808C21.4727 39.2544 21.4727 40.3279 21.4727 41.4015C21.2656 41.8309 21.0508 42.2604 20.8555 42.6996C20.8164 42.7972 20.8164 42.9436 20.8555 43.0411C21.0508 43.4803 21.2656 43.9098 21.4727 44.3392C21.4727 45.4128 21.4727 46.4865 21.4727 47.5601C21.375 47.8138 21.2852 48.0773 21.1797 48.3213C20.7578 49.2485 19.9609 49.7169 19.0312 50C13.4961 50 7.97266 50 2.44141 50C2.1875 49.9023 1.92188 49.8146 1.67969 49.7072C0.75 49.2485 0.28125 48.4579 0 47.5308C0 46.4572 0 45.3835 0 44.3099C0.203125 43.8805 0.417969 43.451 0.613281 43.012C0.652344 42.9143 0.652344 42.7679 0.613281 42.6703C0.417969 42.2311 0.203125 41.8016 0 41.3722C0 40.2987 0 39.2251 0 38.1515C0.203125 37.722 0.417969 37.2926 0.613281 36.8534C0.652344 36.7559 0.652344 36.6094 0.613281 36.5118C0.417969 36.0726 0.203125 35.6432 0 35.2137C0 34.1401 0 33.0665 0 31.9929C0.203125 31.5636 0.417969 31.1342 0.613281 30.6949C0.652344 30.5973 0.652344 30.4509 0.613281 30.3533C0.417969 29.9141 0.203125 29.4846 0 29.0553C0 24.5364 0 20.0078 0 15.489C0.0273438 15.3523 0.0664062 15.2059 0.078125 15.0693C0.242188 13.5272 0.730469 12.1023 1.51172 10.7651C2.48828 9.10596 3.89453 7.84692 5.52344 6.83191C5.77734 6.67578 5.86719 6.50012 5.86719 6.20728C5.84766 4.59692 5.875 2.98657 5.84766 1.38586C5.83594 0.770996 5.99219 0.302612 6.53906 0C9.33984 0 12.1328 0 14.9336 0C15.4805 0.302612 15.6367 0.770996 15.625 1.3761C15.5977 2.91821 15.6367 4.46033 15.6055 6.00232C15.5977 6.44153 15.7344 6.69531 16.1055 6.92957C18.5625 8.45203 20.2695 10.5602 21.0625 13.3711C21.2461 14.0446 21.3359 14.7374 21.4727 15.4207ZM1.95312 27.64C1.95312 27.7767 1.95312 27.8547 1.95312 27.9426C1.93359 29.3383 2.16797 29.5725 3.54297 29.5725C4.61719 29.5725 5.69141 29.5725 6.76172 29.5725C7.18359 29.5725 7.57422 29.7482 7.69141 30.1581C7.76953 30.4509 7.75 30.8804 7.57422 31.0951C7.38672 31.3293 6.97656 31.4952 6.65625 31.505C5.48438 31.5538 4.3125 31.5148 3.14453 31.5245C2.32422 31.5245 1.96094 31.8954 1.95312 32.725C1.94141 33.3105 1.95312 33.8961 1.95312 34.4818C1.96094 35.3699 2.3125 35.7115 3.20312 35.7213C4.34375 35.7213 5.47656 35.692 6.61719 35.7407C6.94922 35.7603 7.36719 35.9165 7.57422 36.1604C7.75 36.3654 7.75781 36.8046 7.67188 37.0974C7.55469 37.5073 7.16406 37.6635 6.74219 37.6635C5.57422 37.6635 4.40234 37.6635 3.23047 37.6635C2.28516 37.6635 1.95312 38.0051 1.94141 38.9713C1.94141 39.5276 1.94141 40.0742 1.94141 40.6305C1.95312 41.5187 2.30469 41.8602 3.20312 41.8602C4.34375 41.8602 5.47656 41.8602 6.61719 41.8602C7.02734 41.8602 7.44531 41.9286 7.61328 42.3287C7.73047 42.6117 7.75 43.0022 7.65234 43.2852C7.51562 43.6853 7.11328 43.8123 6.69531 43.8123C5.49609 43.8123 4.28516 43.8025 3.08594 43.8123C2.34375 43.822 1.96094 44.1929 1.95312 44.9248C1.94141 45.5787 1.94141 46.2229 1.95312 46.8768C1.96094 47.6185 2.33203 48.009 3.06641 48.009C8.16797 48.0188 13.2734 48.0188 18.3867 48.009C19.1484 48.009 19.5117 47.6185 19.5195 46.8475C19.5312 46.3108 19.5195 45.7739 19.5195 45.2372C19.5195 44.105 19.2383 43.8123 18.1133 43.8123C16.9922 43.8123 15.8711 43.8123 14.7461 43.8123C14.2891 43.8123 13.9258 43.6268 13.7422 43.1779C13.5859 42.7875 13.6523 42.3971 13.9766 42.1628C14.2188 41.9871 14.5625 41.8798 14.8633 41.87C16.0352 41.8407 17.207 41.8602 18.3789 41.8505C19.0703 41.8407 19.4805 41.4894 19.5 40.8354C19.5195 40.1034 19.5195 39.3715 19.5 38.6395C19.4805 38.171 19.2461 37.8391 18.7773 37.7123C18.6133 37.6635 18.4258 37.6635 18.25 37.6635C17.0781 37.6635 15.9102 37.6635 14.7383 37.6635C14.2773 37.6635 13.918 37.478 13.7305 37.0291C13.5742 36.6387 13.6523 36.2581 13.9766 36.014C14.1992 35.8481 14.5312 35.7311 14.8164 35.7311C16.0078 35.7018 17.1875 35.7213 18.3789 35.7115C19.1094 35.7018 19.4922 35.3308 19.5 34.5989C19.5117 33.9352 19.5117 33.2617 19.5 32.5981C19.4805 31.9247 19.1094 31.5441 18.4375 31.5245C17.8789 31.505 17.332 31.5245 16.7773 31.5245C16.0742 31.5245 15.3828 31.5343 14.6797 31.5148C14.2188 31.505 13.8672 31.2903 13.7109 30.8315C13.5742 30.4119 13.6914 30.0312 14.043 29.797C14.2695 29.6506 14.5898 29.5823 14.8633 29.5725C16.0352 29.553 17.207 29.5725 18.3789 29.5627C19.0039 29.5627 19.3945 29.27 19.4727 28.7332C19.5195 28.3721 19.4805 28.0012 19.4805 27.6302C13.6328 27.64 7.81641 27.64 1.95312 27.64ZM1.92188 25.6295C7.83594 25.6295 13.6641 25.6295 19.5 25.6295C19.5117 25.5319 19.5195 25.4636 19.5195 25.405C19.5195 22.3502 19.5391 19.2855 19.5117 16.2307C19.5 15.4792 19.3555 14.7277 19.2656 13.986C13.5352 13.986 7.89453 13.986 2.14844 13.986C1.73828 17.8704 2.07031 21.7354 1.92188 25.6295ZM18.3867 11.9851C18.3086 11.8387 18.2617 11.751 18.2109 11.6729C17.3633 10.2284 16.1133 9.20361 14.707 8.35449C14.4727 8.20813 14.1719 8.11047 13.9062 8.11047C12.3164 8.09094 10.7266 8.10071 9.125 8.10071C6.89062 8.10071 6.87891 8.09094 5.125 9.5061C4.29297 10.1796 3.60156 10.9896 3.08594 11.9949C8.20703 11.9851 13.2656 11.9851 18.3867 11.9851ZM13.6328 6.12927C13.6328 4.71399 13.6328 3.35742 13.6328 1.9812C11.6836 1.9812 9.76172 1.9812 7.83594 1.9812C7.83594 3.37695 7.83594 4.75305 7.83594 6.12927C9.78906 6.12927 11.7031 6.12927 13.6328 6.12927Z" fill="#01A3DE" fill-opacity="1.000000" fill-rule="nonzero"/>
	<path id="Vector" d="M11.7031 30.5582C11.7031 31.0658 11.2344 31.5245 10.7266 31.5245C10.2188 31.5245 9.76172 31.056 9.76172 30.5485C9.76172 30.041 10.2305 29.5823 10.7383 29.5823C11.2539 29.5823 11.7148 30.041 11.7031 30.5582Z" fill="#01A3DE" fill-opacity="1.000000" fill-rule="nonzero"/>
	<path id="Vector" d="M11.6992 42.8656C11.6914 43.373 11.2227 43.8318 10.7148 43.822C10.207 43.8123 9.75 43.3438 9.75781 42.8363C9.76953 42.3287 10.2344 41.87 10.7422 41.8798C11.2617 41.8895 11.7109 42.358 11.6992 42.8656Z" fill="#01A3DE" fill-opacity="1.000000" fill-rule="nonzero"/>
	<path id="Vector" d="M10.7422 37.6636C10.2344 37.6733 9.76953 37.2146 9.75781 36.7072C9.75 36.1996 10.207 35.7311 10.7148 35.7213C11.2227 35.7115 11.6914 36.1703 11.6992 36.6779C11.7109 37.1951 11.2617 37.6538 10.7422 37.6636Z" fill="#01A3DE" fill-opacity="1.000000" fill-rule="nonzero"/>
	<path id="Vector" d="M10.7148 23.7167C8.76562 23.7069 7.38672 21.833 7.96484 19.9786C8.38281 18.6317 9.15625 17.4606 9.95703 16.3186C10.3555 15.7623 11.0977 15.7526 11.4883 16.3088C12.3086 17.4606 13.0781 18.6415 13.5 20.0079C14.082 21.8525 12.6602 23.7264 10.7148 23.7167ZM10.8047 18.7781C10.7539 18.7781 10.6953 18.7878 10.6484 18.7878C10.375 19.354 10.0938 19.92 9.83984 20.4958C9.65234 20.9253 9.82031 21.2961 10.1797 21.5597C10.5312 21.8232 10.9102 21.8232 11.2617 21.5695C11.625 21.3059 11.8086 20.9448 11.625 20.5154C11.3789 19.9298 11.0859 19.354 10.8047 18.7781Z" fill="#01A3DE" fill-opacity="1.000000" fill-rule="nonzero"/>
</svg>
