<svg width="46.074219" height="50.000122" viewBox="0 0 46.0742 50.0001" fill="none" xmlns="http://www.w3.org/2000/svg" xmlns:xlink="http://www.w3.org/1999/xlink">
	<desc>
			Created with Pixso.
	</desc>
	<defs/>
	<path id="Vector" d="M23.5195 0.00976562C23.5195 0.478394 23.5195 0.947021 23.5195 1.4646C25.9727 1.4646 28.3828 1.4646 30.832 1.4646C30.832 2.46045 30.832 3.40759 30.832 4.41321C28.4023 4.41321 25.9922 4.41321 23.5508 4.41321C23.5508 5.39929 23.5508 6.33667 23.5508 7.33252C24.9961 7.33252 26.4297 7.33252 27.9336 7.33252C27.9336 7.76221 27.9336 8.12341 27.9336 8.49438C27.9336 9.68567 27.9336 10.8671 27.9336 12.0582C27.9336 13.6985 28.9023 14.6554 30.5508 14.6554C36.8672 14.6652 42.082 18.5999 43.6836 24.5851C44.1016 26.1375 44.1719 27.729 44.1133 29.3693C40.6953 29.3693 37.2969 29.3693 33.8203 29.3693C33.8203 28.9495 33.8203 28.5393 33.8203 28.1195C33.8008 26.2253 32.582 25.0146 30.6953 25.0049C23.5703 25.0049 16.4414 25.0049 9.32422 25.0049C9.16797 25.0049 9.00391 25.0049 8.83594 25.0049C8.59375 26.7037 7.8125 28.0414 6.28906 28.803C5.64453 29.1251 4.88281 29.3302 4.14844 29.379C2.77344 29.4669 1.38672 29.3986 0 29.3986C0 23.0228 0 16.6373 0 10.2617C1.23047 10.2715 2.46875 10.2812 3.69922 10.291C4.53906 10.3008 5.35156 10.4081 6.11328 10.7987C7.69531 11.609 8.5625 12.9271 8.81641 14.6749C8.88672 14.6943 8.95312 14.7139 9.01172 14.7139C10.4961 14.7139 11.9688 14.7529 13.4531 14.7041C15.0859 14.6456 16.168 13.4641 16.1875 11.8043C16.1992 10.5155 16.1875 9.23645 16.1875 7.94763C16.1875 7.76221 16.1875 7.57666 16.1875 7.32275C17.7031 7.32275 19.1367 7.32275 20.5625 7.32275C20.5625 6.3269 20.5625 5.38953 20.5625 4.40344C18.1211 4.40344 15.7109 4.40344 13.2773 4.40344C13.2773 3.40759 13.2773 2.46045 13.2773 1.45483C15.7305 1.45483 18.1406 1.45483 20.6016 1.45483C20.6016 0.937378 20.6016 0.468628 20.6016 0C21.5664 0.00976562 22.543 0.00976562 23.5195 0.00976562ZM8.84766 22.066C9.08203 22.066 9.27734 22.066 9.47266 22.066C16.5508 22.066 23.6289 22.066 30.707 22.066C33.3906 22.066 35.5781 23.5696 36.4102 25.991C36.5547 26.4109 36.75 26.489 37.1328 26.4792C38.2734 26.4597 39.4062 26.4695 40.5469 26.4695C40.7031 26.4695 40.8711 26.4695 41.0352 26.4695C41.0156 26.3035 41.0156 26.196 40.9961 26.0789C40.3633 21.8024 36.3516 18.0433 32.0234 17.6821C31.1836 17.6138 30.3242 17.6626 29.4961 17.5356C26.8203 17.1256 25.0039 14.9287 24.9961 12.1656C24.9961 11.5505 24.9961 10.9451 24.9961 10.33C23.0039 10.33 21.0781 10.33 19.1289 10.33C19.1289 10.9061 19.1367 11.4431 19.1289 11.9801C19.0898 14.6261 17.293 16.901 14.7148 17.4771C13.9414 17.6431 13.1328 17.6431 12.3398 17.6626C11.1875 17.6919 10.0352 17.6724 8.85547 17.6724C8.84766 19.1368 8.84766 20.5624 8.84766 22.066ZM2.94922 26.4695C3.18359 26.4695 3.37891 26.45 3.57422 26.4695C4.90234 26.6061 5.92578 25.7372 5.89844 24.1456C5.82812 21.2361 5.83984 18.3265 5.89844 15.4071C5.92578 13.8938 4.82422 12.8881 2.95703 13.3275C2.94922 17.6919 2.94922 22.0465 2.94922 26.4695Z" fill="#01A3DE" fill-opacity="1.000000" fill-rule="nonzero"/>
	<path id="Vector" d="M38.3633 50.0001C37.9922 49.9025 37.6094 49.8146 37.2383 49.7072C34.0938 48.7795 31.9648 45.6259 32.4141 42.4723C32.5234 41.7205 32.8242 40.9686 33.1484 40.2656C34.1836 38.0298 37.3164 33.9094 39.25 32.191C41.9844 35.3643 44.9727 38.3422 46.0742 42.5894C46.0742 43.0093 46.0742 43.4388 46.0742 43.8586C46.0469 43.9856 46.0078 44.1028 45.9766 44.2297C45.4297 47.0026 43.8281 48.8381 41.1328 49.7169C40.7734 49.8341 40.3906 49.9122 40.0117 50.0001C39.4648 50.0001 38.918 50.0001 38.3633 50.0001ZM39.2383 36.6042C38.0898 37.7271 36.125 40.6172 35.5898 42.0328C35.4336 42.4528 35.3047 42.9116 35.3242 43.351C35.4336 45.8016 37.7461 47.52 40.1367 46.9537C42.2383 46.4558 43.6523 44.1711 42.9492 42.2965C42.1211 40.1387 40.6562 38.391 39.2383 36.6042Z" fill="#01A3DE" fill-opacity="1.000000" fill-rule="nonzero"/>
</svg>
