<svg width="50.000000" height="49.980469" viewBox="0 0 50 49.9805" fill="none" xmlns="http://www.w3.org/2000/svg" xmlns:xlink="http://www.w3.org/1999/xlink">
	<desc>
			Created with Pixso.
	</desc>
	<defs/>
	<path id="Vector" d="M49.9805 8.85571C49.3359 10.7108 47.9414 11.902 46.3477 12.8685C45.8984 13.1322 45.2656 13.0834 44.6094 13.2006C44.4648 14.0208 44.2969 14.9775 44.1211 15.9344C43.7422 17.9945 43.3984 20.0645 42.9414 22.1051C42.6484 23.4135 41.9258 24.5265 41.0078 25.5028C40.3711 26.1765 39.7188 26.8307 39.0547 27.4751C38.0391 28.4613 36.8086 28.9397 35.3828 28.8909C35.2656 28.8909 35.1602 28.8909 35.043 28.8909C35.0312 28.8909 35.0117 28.9006 34.9453 28.9397C35.0625 30.4725 34.6602 31.8688 33.5273 32.9916C32.4062 34.1046 31.0391 34.5441 29.418 34.3878C29.5547 35.9598 29.1562 37.356 28.043 38.4885C26.918 39.6212 25.543 40.0703 23.9609 39.9141C23.9023 40.5292 23.9023 41.115 23.7852 41.6813C23.5977 42.6284 23.1094 43.4291 22.4258 44.1124C21.1484 45.3915 19.8789 46.6705 18.6016 47.9398C17.5156 49.0139 16.2266 49.6876 14.7148 49.9023C14.6562 49.9121 14.6055 49.9609 14.5469 49.9805C14.0312 49.9805 13.5039 49.9805 12.9844 49.9805C12.9258 49.9512 12.8672 49.9121 12.8086 49.9023C11.2383 49.6974 9.91016 48.9846 8.79688 47.8715C6.5625 45.6454 4.33594 43.4095 2.09766 41.1833C1.27734 40.3632 0.664062 39.4161 0.320312 38.3129C0.183594 37.8832 0.105469 37.4341 0 36.9948C0 36.4773 0 35.9501 0 35.4325C0.125 34.9639 0.234375 34.4952 0.378906 34.0364C0.722656 32.972 1.32812 32.0836 2.10938 31.3025C3.14453 30.2676 4.21875 29.2618 5.20312 28.1879C6.50391 26.7819 7.98828 25.8446 10.0547 26.0984C9.92188 24.4777 10.3281 23.0814 11.4531 21.9586C12.5742 20.8358 13.9727 20.4061 15.5352 20.5526C15.7578 16.6959 17.2031 15.2412 21.0781 14.9971C21.0781 14.792 21.0781 14.5968 21.0781 14.3917C21.0703 13.2787 21.3516 12.2241 22.0938 11.4138C23.1094 10.3008 24.1953 9.23645 25.3555 8.2699C26.7148 7.14709 28.4141 6.81506 30.1094 6.54175C32.2305 6.19019 34.3398 5.80945 36.4492 5.43835C36.5859 5.40906 36.7305 5.37 36.8867 5.33093C36.8867 4.96973 36.8086 4.58899 36.9062 4.26672C37.0625 3.74927 37.25 3.20251 37.582 2.79248C38.1562 2.08948 38.8125 1.44507 39.5039 0.849487C39.9336 0.488159 40.5 0.273438 41.0078 0C41.3281 0 41.6602 0 41.9844 0C42.8906 0.214844 43.5547 0.790894 44.1914 1.4353C45.6172 2.89978 47.0625 4.34485 48.5273 5.77039C49.1797 6.41479 49.7773 7.07874 50 8.00623C49.9805 8.2699 49.9805 8.56274 49.9805 8.85571ZM21.957 40.5487C21.9375 39.7285 21.6367 39.0256 21.0586 38.4496C17.8789 35.2568 14.6953 32.0641 11.5 28.8909C10.2617 27.6606 8.55469 27.6411 7.30469 28.842C5.91797 30.1699 4.55078 31.5173 3.24219 32.9232C1.52344 34.7588 1.50391 37.6782 3.24219 39.4845C5.57422 41.9156 7.95703 44.298 10.3789 46.6315C12.3203 48.5061 15.2617 48.4281 17.1953 46.5437C18.4922 45.2842 19.7539 43.9954 21.0312 42.7163C21.625 42.1305 21.957 41.4177 21.957 40.5487ZM35.6875 26.9283C36.2812 26.9186 36.9062 26.7428 37.4141 26.2937C38.0898 25.6786 38.7344 25.0439 39.3672 24.3898C40.2148 23.511 40.8984 22.5054 41.1328 21.2947C41.7188 18.2484 42.2578 15.1924 42.793 12.1364C42.8125 11.9996 42.7148 11.7946 42.6094 11.6871C41.1641 10.2324 39.7188 8.77759 38.2539 7.34229C38.1367 7.2251 37.8828 7.15686 37.7188 7.18616C35.1875 7.61572 32.6602 8.06482 30.1289 8.50415C28.9805 8.70923 27.7773 8.87524 26.8398 9.61731C25.7852 10.4471 24.7812 11.365 23.8516 12.3315C22.6719 13.5618 22.7305 15.251 23.9492 16.4812C27.1133 19.6642 30.2969 22.8373 33.4688 26.0105C34.0547 26.5963 34.7695 26.9186 35.6875 26.9283ZM24.4766 37.9613C25.6484 37.9613 26.625 37.3755 27.125 36.4382C27.7695 35.2275 27.5547 33.8997 26.4883 32.8353C23.3633 29.7013 20.2383 26.5768 17.1055 23.4524C16.9609 23.306 16.793 23.1595 16.6289 23.0326C16.0625 22.6128 15.418 22.4077 14.7148 22.4663C13.4844 22.5737 12.6055 23.2084 12.1758 24.3605C11.7266 25.5614 12.0273 26.6354 12.918 27.5337C16.0703 30.6971 19.2344 33.8606 22.3984 37.0143C23.0039 37.6294 23.707 37.9808 24.4766 37.9613ZM20.4141 16.9498C19.332 16.9498 18.3477 17.5454 17.8398 18.5022C17.1953 19.7324 17.4375 21.0212 18.5508 22.1344C21.625 25.2197 24.7109 28.2953 27.7969 31.3806C27.9727 31.5564 28.1484 31.7223 28.3438 31.8688C28.9219 32.3081 29.5859 32.5132 30.3047 32.4448C31.5156 32.3276 32.375 31.7028 32.8047 30.5604C33.2461 29.3986 33 28.3344 32.1328 27.4556C28.9297 24.2238 25.6992 21.0115 22.4766 17.7993C21.918 17.2329 21.2266 16.9401 20.4141 16.9498ZM48.1055 8.42615C47.9297 8.13318 47.8242 7.84021 47.6172 7.62549C45.8594 5.83875 44.082 4.07141 42.3047 2.31396C41.7773 1.78674 41.2695 1.79651 40.7227 2.32373C40.1953 2.83142 39.6797 3.349 39.1719 3.87622C38.6562 4.41321 38.6367 4.93066 39.1523 5.45789C40.9297 7.24463 42.707 9.03149 44.5039 10.8085C45.0117 11.3162 45.5273 11.2966 46.0469 10.7987C46.582 10.2812 47.1211 9.75391 47.6289 9.20715C47.8242 9.0022 47.9297 8.71899 48.1055 8.42615Z" fill="#01A3DE" fill-opacity="1.000000" fill-rule="nonzero"/>
	<path id="Vector" d="M49.9805 40.2948C49.7461 41.2712 49.4453 42.2183 48.8477 43.058C47.3047 45.2157 44.4062 46.0554 41.8867 45.04C39.4453 44.0538 37.8945 41.359 38.3438 38.7815C38.4609 38.0883 38.6953 37.395 39.0078 36.7604C40.3438 34.0558 41.7422 31.3805 43.1094 28.6858C43.3242 28.2561 43.5977 27.9047 44.1211 27.9047C44.6289 27.9144 44.8945 28.2463 45.0977 28.6663C46.4766 31.3707 47.8711 34.0656 49.2188 36.7897C49.5508 37.4634 49.7188 38.2152 49.9609 38.9279C49.9805 39.3868 49.9805 39.8359 49.9805 40.2948ZM44.0938 31.0486C42.8828 33.4309 41.7109 35.7253 40.5586 38.0394C40.2188 38.7229 40.1211 39.4746 40.2656 40.2264C40.5781 41.8375 41.5156 42.9506 43.0977 43.3704C44.6797 43.8 46.0859 43.3606 47.1211 42.0815C48.1641 40.7927 48.332 39.3282 47.5781 37.8344C46.4961 35.6571 45.3711 33.4895 44.2578 31.322C44.2383 31.2537 44.1914 31.1951 44.0938 31.0486Z" fill="#01A3DE" fill-opacity="1.000000" fill-rule="nonzero"/>
	<path id="Vector" d="M34.5078 18.9905C34.4961 19.8984 33.7148 20.3671 33.082 20.0059C32.9258 19.918 32.7891 19.8008 32.6719 19.674C31.2266 18.2289 29.7695 16.7936 28.3359 15.3291C28.1289 15.124 27.9062 14.8115 27.9062 14.5577C27.9062 14.2648 28.0898 13.9133 28.3047 13.6887C28.5703 13.4154 28.9609 13.4349 29.3008 13.6301C29.4688 13.7278 29.6133 13.8645 29.75 14.0012C31.1758 15.4266 32.6016 16.8424 34.0195 18.2777C34.2422 18.512 34.3984 18.8342 34.5078 18.9905Z" fill="#01A3DE" fill-opacity="1.000000" fill-rule="nonzero"/>
	<path id="Vector" d="M37.2695 21.9098C37.2773 22.4175 36.8281 22.8861 36.3203 22.8959C35.8164 22.9056 35.3477 22.4663 35.3359 21.9489C35.3281 21.4314 35.7656 20.9724 36.2812 20.9626C36.7891 20.9529 37.2578 21.4021 37.2695 21.9098Z" fill="#01A3DE" fill-opacity="1.000000" fill-rule="nonzero"/>
</svg>
