<svg width="39.453125" height="50.000000" viewBox="0 0 39.4531 50" fill="none" xmlns="http://www.w3.org/2000/svg" xmlns:xlink="http://www.w3.org/1999/xlink">
	<desc>
			Created with Pixso.
	</desc>
	<defs/>
	<path id="Vector" d="M14.2578 0.00976562C15.3438 0.449219 15.75 1.25 15.6719 2.39258C15.6172 3.23242 15.6562 4.08203 15.6641 4.93164C15.6758 5.68359 15.4492 6.29883 14.8125 6.73828C14.5977 6.88477 14.5039 8.80859 14.6875 8.96484C14.7656 9.0332 14.8906 9.05273 15 9.08203C18.3789 10.1465 20.5781 13.1152 20.5977 16.6602C20.5977 17.8027 20.6641 18.9453 20.2227 20.0293C20.0391 20.4785 19.8242 20.918 19.5781 21.4551C20.1172 21.4551 20.6172 21.4355 21.125 21.4551C21.5625 21.4746 21.8555 21.7188 21.9727 22.1387C22.1016 22.5586 21.9922 22.9395 21.6328 23.1738C21.4141 23.3105 21.1133 23.3789 20.8477 23.3887C19.8555 23.4082 18.8672 23.3984 17.8711 23.3984C17.6953 23.3984 17.5195 23.3984 17.2656 23.3984C17.3047 24.2383 17.3438 25.0391 17.3906 25.8496C17.4297 26.6113 17.4727 27.3828 17.5586 28.1348C17.5781 28.3105 17.7461 28.5449 17.9102 28.623C19.3164 29.248 20.6719 29.0918 21.9336 28.2227C23.2227 27.3438 24.6289 26.9531 26.1797 27.1387C27.2266 27.2559 28.1445 27.666 29.0156 28.252C30.2656 29.1016 31.6016 29.2383 32.9961 28.623C33.1328 28.5645 33.3281 28.3984 33.3398 28.2812C33.457 26.6797 33.5352 25.0781 33.6328 23.4082C32.7539 23.4082 31.9219 23.4082 31.1016 23.4082C30.6836 23.4082 30.2539 23.4277 29.8359 23.3984C29.25 23.3594 28.8867 22.9688 28.8867 22.4219C28.8867 21.8848 29.2578 21.4746 29.8438 21.4648C31.457 21.4453 33.0664 21.4453 34.6797 21.4648C35.332 21.4746 35.6836 21.8945 35.6445 22.6074C35.5469 24.4922 35.4297 26.377 35.3203 28.2617C35.1367 31.3672 34.9531 34.4629 34.7773 37.5684C34.6094 40.4883 34.4531 43.418 34.2578 46.3379C34.1328 48.1934 32.9766 49.4824 31.1406 49.9219C31.082 49.9414 31.0273 49.9707 30.9688 50C27.2852 50 23.6133 50 19.9297 50C19.4727 49.8242 19.0156 49.6484 18.5469 49.4727C18.4766 49.4434 18.3867 49.4336 18.3203 49.4531C17.8398 49.6289 17.375 49.8145 16.8945 50C16.4766 50 16.0469 50 15.625 50C14.8125 49.668 13.9922 49.3457 13.2422 49.0332C12.5 49.3457 11.7188 49.668 10.9375 50C10.5156 50 10.0898 50 9.66797 50C8.875 49.668 8.08594 49.3359 7.36328 49.043C6.58203 49.3555 5.78125 49.6777 4.98047 50C4.58984 50 4.19922 50 3.80859 50C2.57812 49.7266 1.49609 49.1895 0.820312 48.0957C0.460938 47.5098 0.273438 46.8359 0 46.1914C0 39.5801 0 32.9785 0 26.3672C0.214844 25.2246 0.652344 24.1895 1.31641 23.2227C1.60938 22.8027 1.60938 22.2559 1.31641 21.8359C0.664062 20.8887 0.234375 19.8633 0 18.75C0 17.7441 0 16.7285 0 15.7227C0.03125 15.6641 0.0703125 15.6152 0.078125 15.5469C0.636719 12.2559 2.49219 10.0977 5.66406 9.07227C5.91797 8.99414 5.98438 8.86719 5.97656 8.62305C5.96484 8.13477 5.98438 7.64648 5.96484 7.1582C5.95703 7.01172 5.86719 6.80664 5.76172 6.72852C5.16406 6.29883 4.92188 5.72266 4.92188 5.00977C4.92188 4.13086 4.96094 3.25195 4.91406 2.37305C4.84375 1.23047 5.25391 0.419922 6.34766 0C8.98438 0.00976562 11.6211 0.00976562 14.2578 0.00976562ZM18.6211 18.252C18.418 18.3008 18.2812 18.3398 18.1445 18.3691C16.3281 18.8184 14.6094 18.584 13.0547 17.5293C11.1914 16.2598 9.39453 16.2695 7.52734 17.5391C6.17188 18.4668 4.64062 18.7598 3.01953 18.4766C2.67578 18.418 2.34375 18.3398 1.97266 18.2617C2.03125 19.082 2.29688 19.7656 2.72656 20.4004C3.73047 21.875 3.72266 23.2227 2.71484 24.6973C2.22656 25.4199 1.96094 26.2012 1.96094 27.0703C1.96094 27.3633 1.96094 27.6562 1.96094 27.9492C1.96094 33.7695 1.96094 39.5996 1.96094 45.4199C1.96094 46.6309 2.63672 47.6074 3.67969 47.9297C4.73438 48.2617 5.76172 47.8613 6.47656 46.8652C6.98438 46.1523 7.73438 46.1328 8.22266 46.8555C8.57422 47.373 9.02344 47.7539 9.61719 47.9297C10.6719 48.2422 11.6875 47.8516 12.3711 46.875C12.8984 46.1328 13.625 46.1328 14.1523 46.875C14.25 47.0117 14.3359 47.1387 14.4453 47.2656C15.1172 47.998 16.2305 48.252 16.9727 47.8418C16.875 47.4121 16.7188 46.9922 16.6914 46.5625C16.5156 43.9941 16.3672 41.4355 16.2109 38.8672C16.0234 35.752 15.8398 32.6367 15.6641 29.5117C15.5273 27.207 15.3906 24.9023 15.2656 22.5977C15.2266 21.9434 15.5742 21.416 16.1328 21.4844C17.0781 21.6016 17.5 21.1328 17.8906 20.3906C18.2422 19.7461 18.5742 19.0918 18.6211 18.252ZM17.707 30.6738C17.707 30.8594 17.6953 30.9668 17.707 31.084C17.8906 34.2969 18.0742 37.5098 18.2695 40.7324C18.3789 42.5 18.4688 44.2773 18.5859 46.0449C18.6719 47.3926 19.3945 48.0664 20.7031 48.0664C23.9062 48.0664 27.1094 48.0664 30.3125 48.0664C31.4453 48.0664 32.2188 47.334 32.3047 46.2207C32.3555 45.5762 32.3711 44.9219 32.4102 44.2676C32.5977 41.1328 32.7852 37.998 32.9688 34.8633C33.0469 33.4863 33.125 32.1094 33.2031 30.6738C31.0742 31.3184 29.2266 30.7812 27.4414 29.6191C26.1133 28.75 24.6602 28.8672 23.2812 29.6875C23.0195 29.8438 22.7656 30.0293 22.5 30.1855C20.9961 31.0156 19.4062 31.1719 17.707 30.6738ZM7.92969 7.06055C7.92969 7.94922 7.92969 8.7793 7.92969 9.59961C7.92969 10.3418 7.6875 10.625 6.97266 10.7715C6.86719 10.791 6.75 10.8203 6.64062 10.8398C4.27734 11.3086 2.35547 13.3398 2.03125 15.6836C1.98438 16.0156 2.07812 16.1426 2.36328 16.2598C3.76953 16.8262 5.12891 16.7285 6.42578 15.9375C6.81641 15.7031 7.1875 15.4297 7.59766 15.2441C9.80469 14.248 11.9336 14.4141 13.9336 15.7715C15.1953 16.6211 16.5312 16.8457 17.9688 16.3672C18.6406 16.1426 18.6914 16.0645 18.5234 15.3906C17.8984 12.9004 16.3555 11.3477 13.8281 10.8105C12.8594 10.6055 12.6758 10.3906 12.6758 9.39453C12.6758 8.61328 12.6758 7.8418 12.6758 7.04102C11.0664 7.06055 9.53125 7.06055 7.92969 7.06055ZM13.6797 2.00195C11.4062 2.00195 9.16016 2.00195 6.90234 2.00195C6.90234 3.03711 6.90234 4.04297 6.90234 5.05859C9.17969 5.05859 11.4336 5.05859 13.6797 5.05859C13.6797 4.01367 13.6797 3.01758 13.6797 2.00195Z" fill="#01A3DE" fill-opacity="1.000000" fill-rule="nonzero"/>
	<path id="Vector" d="M39.4531 9.38477C39.3047 9.98047 39.207 10.5957 39.0117 11.1719C37.7812 14.8926 34.043 17.3633 30.2617 16.9727C26.1523 16.543 23.0469 13.5547 22.5391 9.53125C21.9609 4.96094 25.2031 0.722656 29.7539 0.0976562C29.8633 0.078125 29.9688 0.0390625 30.0781 0.00976562C30.6641 0.00976562 31.25 0.00976562 31.8359 0.00976562C31.9219 0.0390625 32.0195 0.078125 32.1094 0.0976562C35.5938 0.595703 38.3594 3.08594 39.207 6.49414C39.3047 6.86523 39.375 7.24609 39.4531 7.62695C39.4531 8.21289 39.4531 8.79883 39.4531 9.38477ZM30.9961 1.96289C27.3828 1.95312 24.4219 4.87305 24.4141 8.47656C24.4023 12.0703 27.3125 15.0195 30.8984 15.0391C34.5117 15.0586 37.4805 12.1484 37.5 8.54492C37.5195 4.94141 34.5977 1.97266 30.9961 1.96289Z" fill="#01A3DE" fill-opacity="1.000000" fill-rule="nonzero"/>
	<path id="Vector" d="M24.4922 22.4219C24.5039 21.875 24.9141 21.4746 25.4609 21.4746C25.9961 21.4746 26.4258 21.8945 26.4375 22.4219C26.4453 22.9688 25.9766 23.418 25.4414 23.4082C24.8945 23.3887 24.4844 22.959 24.4922 22.4219Z" fill="#01A3DE" fill-opacity="1.000000" fill-rule="nonzero"/>
	<path id="Vector" d="M30.2266 9.01367C30.9375 7.87109 31.6328 6.77734 32.3242 5.67383C32.5781 5.27344 32.9492 5.09766 33.4102 5.20508C33.8086 5.29297 34.082 5.56641 34.1211 5.97656C34.1406 6.2207 34.0938 6.50391 33.9648 6.70898C33.0195 8.26172 32.0508 9.80469 31.0742 11.3379C30.6367 12.0215 29.8359 12.0215 29.3867 11.3379C28.8867 10.5762 28.3984 9.80469 27.9414 9.02344C27.6367 8.51562 27.793 7.93945 28.2539 7.66602C28.7031 7.39258 29.25 7.5293 29.582 7.98828C29.6992 8.14453 29.7852 8.32031 29.8945 8.48633C29.9922 8.65234 30.0977 8.81836 30.2266 9.01367Z" fill="#01A3DE" fill-opacity="1.000000" fill-rule="nonzero"/>
</svg>
