<svg width="50.003906" height="29.173950" viewBox="0 0 50.0039 29.174" fill="none" xmlns="http://www.w3.org/2000/svg" xmlns:xlink="http://www.w3.org/1999/xlink">
	<desc>
			Created with Pixso.
	</desc>
	<defs/>
	<path id="Vector" d="M16.9922 29.1544C16.1992 28.8127 15.3516 28.5491 14.6172 28.1C13.6328 27.4946 13.0273 26.5281 12.7227 25.4149C12.625 25.0439 12.4492 24.9756 12.1172 24.9854C11.2617 25.0049 10.3906 24.9951 9.53125 24.9854C8.80078 24.9756 8.32031 24.546 8.33984 23.9309C8.35938 23.3256 8.82812 22.9154 9.53125 22.9154C10.5391 22.9056 11.543 22.9154 12.5781 22.9154C12.6367 22.7202 12.6953 22.5347 12.7539 22.3589C13.4648 20.1914 15.5078 18.717 17.7422 18.7463C20.0469 18.7756 22.0273 20.2598 22.6836 22.4761C22.7891 22.8275 22.9258 22.9252 23.2773 22.9252C24.8203 22.9056 26.375 22.9056 27.918 22.9252C28.25 22.9252 28.3555 22.7982 28.4258 22.5054C29.9297 15.8661 31.4414 9.23645 32.9531 2.59717C32.9844 2.46045 33.0117 2.31396 33.0508 2.08948C32.8086 2.08948 32.6016 2.08948 32.3984 2.08948C24.8789 2.08948 17.3633 2.08948 9.85547 2.08948C9.60938 2.08948 9.36719 2.08948 9.13281 2.03088C8.66406 1.92346 8.35156 1.50366 8.35156 1.03491C8.35156 0.566284 8.67188 0.15625 9.14062 0.0488281C9.32812 0 9.53125 0 9.71875 0C17.832 0 25.9531 0 34.0664 0C35.1602 0 35.5703 0.517456 35.3281 1.59143C34.9961 3.04626 34.6641 4.5011 34.332 5.96558C34.3125 6.0437 34.3125 6.12183 34.293 6.24878C34.5078 6.24878 34.7031 6.24878 34.8984 6.24878C37.1133 6.26831 39.332 6.19019 41.5273 6.3269C45.7148 6.59045 49.3398 10.0762 49.9062 14.2452C49.9258 14.4015 49.9727 14.5577 50.0039 14.7139C50.0039 15.1045 50.0039 15.495 50.0039 15.8856C49.9727 15.9734 49.9258 16.0613 49.9062 16.1492C49.418 18.7561 48.9375 21.3533 48.4492 23.9602C48.3125 24.7119 47.9922 24.9756 47.2109 24.9854C46.7227 24.9854 46.2344 24.9854 45.7461 24.9854C45.6875 25.1807 45.6484 25.3368 45.5977 25.493C45.0625 27.1041 44.0078 28.2269 42.4258 28.842C42.0625 28.9788 41.6836 29.0568 41.3125 29.1642C40.8555 29.1642 40.4062 29.1642 39.9453 29.1642C39.9062 29.1349 39.8672 29.1056 39.8203 29.0958C37.6523 28.6858 36.2461 27.4165 35.6094 25.3173C35.5234 25.0342 35.375 24.9951 35.1211 24.9951C31.1602 25.0049 27.1953 25.0049 23.2305 24.9951C22.918 24.9951 22.7891 25.0928 22.7031 25.3954C22.1758 27.153 21.0234 28.3246 19.2969 28.9202C18.9922 29.0276 18.6719 29.0861 18.3672 29.174C17.8984 29.1544 17.4492 29.1544 16.9922 29.1544ZM46.5273 22.8861C46.9062 20.8358 47.2695 18.844 47.6602 16.8522C47.8359 15.9441 48 15.0459 47.7969 14.1085C47.0625 10.8085 44.2109 8.41638 40.8242 8.35779C38.6484 8.31873 36.4688 8.35779 34.2812 8.32849C33.8438 8.31873 33.7461 8.49438 33.668 8.85571C32.9453 12.0778 32.2031 15.2998 31.4688 18.512C31.1406 19.957 30.8164 21.4119 30.4844 22.8861C32.1836 22.8861 33.832 22.8861 35.4844 22.8861C36.2461 19.9961 38.5195 18.7366 40.4844 18.7561C43.2656 18.7756 44.9648 20.2793 45.7461 22.8861C46.0078 22.8861 46.2539 22.8861 46.5273 22.8861ZM40.6211 20.8358C38.8828 20.8358 37.4961 22.2319 37.4961 23.9602C37.5039 25.6591 38.8906 27.0553 40.5898 27.0748C42.2969 27.0944 43.7344 25.6786 43.7344 23.9602C43.7422 22.2319 42.3555 20.8358 40.6211 20.8358ZM20.8086 23.97C20.8086 22.2026 19.4609 20.8358 17.7031 20.8358C15.9766 20.8358 14.5977 22.2026 14.5977 23.9309C14.5977 25.6884 15.9766 27.0846 17.7031 27.0846C19.4219 27.0748 20.8008 25.6884 20.8086 23.97Z" fill="#01A3DE" fill-opacity="1.000000" fill-rule="nonzero"/>
	<path id="Vector" d="M0 17.4381C0.253906 16.8621 0.683594 16.6472 1.31641 16.6472C5.33203 16.6667 9.34375 16.657 13.3672 16.657C14.1367 16.657 14.5977 17.0768 14.5664 17.7407C14.5469 18.2386 14.1953 18.639 13.707 18.7074C13.5312 18.7269 13.3477 18.7269 13.1719 18.7269C9.25781 18.7269 5.33984 18.7172 1.41406 18.7367C0.789062 18.7367 0.3125 18.5707 0 18.0142C0 17.8286 0 17.6333 0 17.4381Z" fill="#01A3DE" fill-opacity="1.000000" fill-rule="nonzero"/>
	<path id="Vector" d="M8.30078 12.478C6.71094 12.478 5.10938 12.478 3.51562 12.478C3.35156 12.478 3.19531 12.478 3.03125 12.4683C2.49219 12.4194 2.09375 11.9897 2.08203 11.4625C2.07422 10.9646 2.43359 10.5155 2.94141 10.4178C3.03906 10.3983 3.13672 10.3983 3.23438 10.3983C6.63281 10.3983 10.0391 10.3983 13.4375 10.3983C14.1211 10.3983 14.5586 10.8083 14.5703 11.4137C14.5781 12.0483 14.1484 12.4585 13.4375 12.4683C11.7188 12.4878 10.0117 12.478 8.30078 12.478Z" fill="#01A3DE" fill-opacity="1.000000" fill-rule="nonzero"/>
	<path id="Vector" d="M9.35547 6.22925C8.03516 6.22925 6.71875 6.22925 5.39844 6.22925C4.62891 6.22925 4.19141 5.85828 4.17969 5.21387C4.17188 4.55969 4.62891 4.15942 5.41797 4.15942C8.08594 4.15942 10.75 4.14966 13.418 4.15942C14.3242 4.15942 14.8633 4.98926 14.4336 5.72156C14.1992 6.11206 13.8359 6.23901 13.3984 6.23901C12.0508 6.22925 10.7031 6.22925 9.35547 6.22925Z" fill="#01A3DE" fill-opacity="1.000000" fill-rule="nonzero"/>
</svg>
