<svg width="30" height="30" viewBox="0 0 30 30" fill="none" xmlns="http://www.w3.org/2000/svg">
<path d="M27.1278 30C26.2556 29.8873 25.6391 29.3537 25.0451 28.7525C23.2105 26.8963 21.3609 25.0626 19.5263 23.2139C19.3534 23.0411 19.2331 23.0035 19.015 23.1388C17.7293 23.9504 16.3308 24.484 14.8421 24.762C12.6617 25.1678 10.5113 25.0175 8.40601 24.2886C6.34586 23.5746 4.59398 22.3948 3.14286 20.764C1.68421 19.1258 0.729324 17.232 0.278196 15.0902C0.172933 14.6017 0.135337 14.1057 0.0601495 13.6172C0.0451119 13.512 0.0225564 13.4068 0 13.3016C0 12.7906 0 12.2871 0 11.7761C0.0150376 11.7009 0.0451137 11.6258 0.0526325 11.5506C0.180452 9.73948 0.669172 8.03357 1.56391 6.46293C3.48872 3.08116 6.36842 0.999499 10.188 0.225451C10.6917 0.127756 11.203 0.0751503 11.7143 0C12.1804 0 12.6541 0 13.1203 0C13.5639 0.0601202 14.0075 0.10521 14.4511 0.172846C17.6015 0.691383 20.1955 2.18687 22.2256 4.65932C22.2857 4.72695 22.3459 4.79459 22.4211 4.87725C22.6692 4.62926 22.8872 4.39629 23.1203 4.17836C23.2481 4.05812 23.2556 3.96042 23.1804 3.80261C22.7293 2.78056 23.1955 1.6007 24.218 1.16483C25.2556 0.728958 26.4286 1.22495 26.8421 2.28457C26.9098 2.46493 27.0075 2.51002 27.188 2.51002C28.1278 2.50251 29.0601 2.51002 30 2.51753C30 2.8482 30 3.17886 30 3.50952C29.0451 3.50952 28.0902 3.50952 27.1278 3.502C26.9774 3.502 26.9098 3.54709 26.8571 3.68988C26.406 4.81713 25.2857 5.26804 24.1429 4.8021C24.0752 4.77204 23.9474 4.77956 23.8947 4.82465C23.5865 5.10271 23.2932 5.40331 22.985 5.69639C23.1128 5.91433 23.2256 6.09469 23.3308 6.28256C24.4511 8.21393 25.0075 10.3106 24.9925 12.5351C24.985 14.8572 24.3684 17.0215 23.1429 18.998C23.015 19.2009 23.0226 19.3136 23.1955 19.4865C25.0601 21.3352 26.9098 23.1989 28.7744 25.0476C29.3534 25.6187 29.8571 26.2199 29.9925 27.0541C29.9925 27.2495 29.9925 27.4449 29.9925 27.6403C29.9774 27.7004 29.9549 27.768 29.9398 27.8357C29.8045 28.4895 29.4812 29.023 28.9474 29.4439C28.5639 29.752 28.1053 29.8722 27.6466 29.9925C27.4812 30 27.3083 30 27.1278 30ZM24 12.505C23.9774 6.14729 18.8722 0.909319 12.2857 0.999499C6.1203 1.08216 0.894737 6.11723 0.984963 12.7004C1.06767 18.8327 6.06767 24.0857 12.6992 23.988C18.8647 23.8978 23.9398 18.9379 24 12.505ZM24.5564 22.252C23.782 23.0261 23.0301 23.7851 22.2782 24.5366C23.594 25.8592 24.9323 27.2119 26.2782 28.5496C26.5489 28.8201 26.8872 28.9629 27.2707 28.993C27.9474 29.0381 28.5714 28.6774 28.8571 28.0611C29.1504 27.4374 29.0376 26.746 28.5038 26.2049C27.188 24.8823 25.8571 23.5596 24.5564 22.252ZM22.5263 20.2906C21.782 21.0271 21.0226 21.7786 20.3083 22.4925C20.6541 22.8307 21.1053 23.2816 21.5188 23.6949C22.2481 22.9734 23 22.2295 23.7444 21.5005C23.3008 21.0646 22.8496 20.6212 22.5263 20.2906ZM24.9925 4.00551C25.5489 4.00551 26.0075 3.56212 26 3.00601C25.9925 2.47244 25.5413 2.02154 25.0075 2.01403C24.4586 2.00651 24.0075 2.46493 24.0075 3.02104C24.015 3.57715 24.4436 4.00551 24.9925 4.00551Z" fill="#01A3DE"/>
<path d="M12.5119 2.01416C18.3766 2.08931 22.9856 6.70354 22.9931 12.5127C22.9931 18.412 18.2412 23.0112 12.4818 22.9886C6.60965 22.9661 2.00062 18.2692 2.01566 12.4901C2.03822 6.60584 6.72995 2.06677 12.5119 2.01416ZM3.09085 11.5056C2.6322 15.0452 4.44423 19.3438 8.72243 21.2075C12.6172 22.9059 17.2262 21.8764 19.9931 18.3368C22.6698 14.9175 22.3841 10.5663 20.76 7.92849C20.4668 8.22909 20.1961 8.52969 19.8954 8.81526C19.7525 8.95053 19.7375 9.05574 19.8202 9.2361C20.354 10.431 19.5721 11.7912 18.2713 11.9866C17.8051 12.0542 17.3916 11.9265 16.9705 11.7386C15.9179 12.7907 14.8728 13.8353 13.8427 14.8874C13.7826 14.9475 13.7901 15.1129 13.8277 15.2106C14.1209 15.932 14.0457 16.6159 13.5721 17.2246C12.933 18.0512 11.8427 18.2391 10.948 17.7055C10.1059 17.202 9.78258 16.1424 10.1811 15.1955C10.2187 15.1129 10.2262 14.9626 10.1811 14.9175C9.46679 14.1885 8.73747 13.4671 8.02318 12.7456C6.65476 13.2942 5.78258 12.956 5.11341 11.6334C5.08333 11.5733 4.98559 11.5132 4.91792 11.5132C4.31642 11.5056 3.71491 11.5056 3.09085 11.5056ZM3.24875 10.5061C3.71491 10.5061 4.151 10.4911 4.58709 10.5137C4.90288 10.5287 5.15852 10.5137 5.22619 10.1304C5.24123 10.0327 5.32393 9.94252 5.38408 9.85234C5.9931 9.01065 7.10589 8.77769 8.01566 9.30374C8.88032 9.79973 9.22619 10.8894 8.81266 11.8213C8.75251 11.9641 8.72995 12.0467 8.85777 12.1745C9.52694 12.8283 10.1811 13.4971 10.8578 14.1509C10.9179 14.2111 11.0683 14.2411 11.151 14.2035C11.7224 13.948 12.2788 13.948 12.8503 14.196C12.9254 14.2336 13.0833 14.2035 13.1435 14.1434C14.151 13.1514 15.151 12.1519 16.151 11.1449C16.2112 11.0848 16.2337 10.9345 16.2036 10.8594C15.8653 10.0552 16.0006 9.21356 16.5871 8.61236C17.166 8.01867 18.0232 7.86837 18.8578 8.21406C18.933 8.24412 19.0608 8.24412 19.1059 8.19903C19.4969 7.83079 19.8653 7.44753 20.2412 7.07929C18.5796 4.5317 15.0081 2.49512 10.9931 3.14893C6.87281 3.82528 3.95551 7.01166 3.24875 10.5061ZM6.01566 11.0097C6.01566 11.5582 6.45175 12.0016 6.99311 12.0091C7.53446 12.0167 8.00814 11.5582 8.00814 11.0097C8.00814 10.4611 7.5495 10.0102 6.99311 10.0177C6.44423 10.0252 6.01566 10.4611 6.01566 11.0097ZM11.9931 16.9991C12.5495 17.0066 13.0081 16.5557 13.0006 16.0071C13.0006 15.4661 12.557 15.0227 12.0157 15.0152C11.4743 15.0076 11.0232 15.4435 11.0081 15.9846C11.0006 16.5407 11.4367 16.9916 11.9931 16.9991ZM18.9931 10.0177C18.9931 9.46156 18.5721 9.02568 18.0232 9.01817C17.4668 9.01065 17.0081 9.44652 17.0006 10.0026C16.9931 10.5437 17.4668 11.0172 18.0081 11.0097C18.5495 11.0097 18.9931 10.5663 18.9931 10.0177Z" fill="#01A3DE"/>
</svg>
