<svg width="24" height="24" viewBox="0 0 24 24" fill="none" xmlns="http://www.w3.org/2000/svg">
<path d="M0 1.92526C0.0489734 1.77834 0.0857034 1.63143 0.140798 1.48451C0.453004 0.615228 1.27331 0.0091825 2.19768 0.0091825C4.48718 -0.00306083 6.77057 -0.00306083 9.06007 0.0091825C10.2538 0.0153042 11.2394 1.00089 11.2455 2.19462C11.2577 4.48412 11.2577 6.76751 11.2455 9.05701C11.2394 10.2507 10.2538 11.2363 9.06007 11.2424C6.77057 11.2608 4.48718 11.2547 2.19768 11.2424C1.16312 11.2363 0.287718 10.4956 0.055095 9.47328C0.0428517 9.42431 0.0244867 9.37533 0.00612167 9.32636C1.3683e-09 6.85933 0 4.3923 0 1.92526ZM1.49981 5.61051C1.49981 6.70629 1.49981 7.79595 1.49981 8.89172C1.49981 9.45492 1.79365 9.74876 2.35072 9.74876C4.53616 9.74876 6.72159 9.74876 8.91315 9.74876C9.45186 9.74876 9.75182 9.4488 9.75182 8.90397C9.75182 6.71853 9.75182 4.5331 9.75182 2.34154C9.75182 1.79671 9.45186 1.49675 8.91315 1.49675C6.72772 1.49675 4.54228 1.49675 2.35072 1.49675C1.79977 1.49675 1.49981 1.79671 1.49981 2.35378C1.49981 3.44344 1.49981 4.52697 1.49981 5.61051Z" fill="#01A3DE"/>
<path d="M23.9908 9.3261C23.954 9.44241 23.9234 9.55872 23.8867 9.68115C23.599 10.5872 22.7542 11.2422 21.7992 11.2483C19.5097 11.2605 17.2263 11.2605 14.9368 11.2483C13.7431 11.2422 12.7575 10.2566 12.7514 9.06287C12.7391 6.77336 12.7391 4.48998 12.7514 2.20048C12.7575 1.00675 13.7431 0.0211635 14.9368 0.0150419C17.2263 0.00279854 19.5097 0.00279854 21.7992 0.0150419C22.8338 0.0211635 23.703 0.761885 23.9418 1.7842C23.954 1.83318 23.9724 1.88215 23.9908 1.93112C23.9908 4.39203 23.9908 6.85907 23.9908 9.3261ZM18.3711 9.7485C19.473 9.7485 20.5749 9.7485 21.6768 9.7485C22.191 9.7485 22.4971 9.44241 22.4971 8.93431C22.4971 6.73051 22.4971 4.53283 22.4971 2.32903C22.4971 1.80869 22.191 1.50261 21.6645 1.50261C19.473 1.50261 17.2753 1.50261 15.0837 1.50261C14.5573 1.50261 14.2512 1.80869 14.2512 2.32903C14.2512 4.52059 14.2512 6.71827 14.2512 8.90983C14.2512 9.44853 14.5511 9.7485 15.096 9.7485C16.1856 9.7485 17.2753 9.7485 18.3711 9.7485Z" fill="#01A3DE"/>
<path d="M0 14.6704C0.0489734 14.5235 0.0857034 14.3765 0.140798 14.2296C0.453004 13.3603 1.27331 12.7543 2.19768 12.7543C4.48718 12.7421 6.77057 12.7421 9.06007 12.7543C10.2538 12.7604 11.2394 13.746 11.2455 14.9397C11.2577 17.2292 11.2577 19.5126 11.2455 21.8021C11.2394 22.8428 10.4803 23.7366 9.45798 23.9508C9.41513 23.957 9.37228 23.9814 9.32942 23.9998C6.86239 23.9998 4.39536 23.9998 1.92833 23.9998C1.84874 23.9753 1.76916 23.9447 1.68958 23.9202C0.912129 23.6998 0.391787 23.204 0.122433 22.451C0.0795817 22.3286 0.0489734 22.2 0.00612167 22.0776C1.3683e-09 19.6044 0 17.1374 0 14.6704ZM1.49981 18.3618C1.49981 19.4637 1.49981 20.5656 1.49981 21.6675C1.49981 22.1939 1.79977 22.5 2.32623 22.5C4.51779 22.5 6.71547 22.5 8.90703 22.5C9.44574 22.5 9.7457 22.2 9.7457 21.6552C9.7457 19.4698 9.7457 17.2843 9.7457 15.0928C9.7457 14.5479 9.44574 14.248 8.90703 14.248C6.72159 14.248 4.53616 14.248 2.3446 14.248C1.79365 14.248 1.49369 14.548 1.49369 15.105C1.49981 16.1886 1.49981 17.2721 1.49981 18.3618Z" fill="#01A3DE"/>
<path d="M14.669 23.9939C14.4608 23.9205 14.2343 23.8654 14.0385 23.7674C13.2243 23.3634 12.7651 22.7023 12.759 21.7963C12.7345 19.5068 12.7407 17.2234 12.7529 14.9339C12.759 13.7402 13.7446 12.7546 14.9383 12.7484C17.2278 12.7362 19.5112 12.7362 21.8007 12.7484C22.8353 12.7546 23.7046 13.4953 23.9433 14.5176C23.9556 14.5666 23.9739 14.6155 23.9923 14.6645C23.9923 17.1316 23.9923 19.5986 23.9923 22.0656C23.9739 22.1146 23.9556 22.1636 23.9433 22.2125C23.7352 23.039 23.2271 23.596 22.4251 23.8776C22.3088 23.9205 22.1925 23.9511 22.0762 23.9817C19.603 23.9939 17.136 23.9939 14.669 23.9939ZM14.2466 18.362C14.2466 19.4578 14.2466 20.5474 14.2466 21.6432C14.2466 22.2064 14.5404 22.5003 15.0975 22.5003C17.2829 22.5003 19.4684 22.5003 21.6599 22.5003C22.1986 22.5003 22.4986 22.2003 22.4986 21.6555C22.4986 19.47 22.4986 17.2846 22.4986 15.093C22.4986 14.5482 22.1986 14.2482 21.6599 14.2482C19.4745 14.2482 17.2891 14.2482 15.0975 14.2482C14.5465 14.2482 14.2466 14.5482 14.2466 15.1053C14.2466 16.1888 14.2466 17.2724 14.2466 18.362Z" fill="#01A3DE"/>
</svg>
