<svg width="30" height="28" viewBox="0 0 30 28" fill="none" xmlns="http://www.w3.org/2000/svg">
<path d="M5.95001 0C7.01227 0.277714 7.69267 1.04142 8.24115 1.91622C8.77575 2.76325 9.22703 3.65193 9.68526 4.54756C9.81023 4.79056 9.92826 4.87387 10.199 4.87387C16.0241 4.86693 21.8422 4.86693 27.6672 4.86693C28.1463 4.86693 28.6114 4.90164 29.0349 5.15159C29.6529 5.51261 30 6.03332 30 6.76232C30 11.0877 30 15.4131 30 19.7385C30 20.8007 29.1807 21.6339 28.056 21.6478C25.8412 21.6755 23.6334 21.6617 21.4187 21.6547C20.9882 21.6547 20.6897 21.3562 20.6827 20.9674C20.6758 20.5716 20.9535 20.28 21.3839 20.2453C21.495 20.2384 21.6061 20.2384 21.7172 20.2384C23.7306 20.2384 25.744 20.2384 27.7575 20.2384C28.4726 20.2384 28.5906 20.1134 28.5906 19.4191C28.5906 15.6006 28.5906 11.782 28.5906 7.96344C28.5906 7.84541 28.5906 7.72044 28.5906 7.53298C28.4517 7.63018 28.3615 7.69266 28.2712 7.76209C25.2858 10.1088 22.3004 12.4554 19.315 14.7952C18.0583 15.7811 17.0516 15.7811 15.795 14.7952C13.6357 13.0942 11.4696 11.3932 9.3034 9.69915C9.109 9.5464 8.87989 9.4492 8.66466 9.32423C8.71326 9.26174 8.76186 9.19926 8.81046 9.14372C8.36612 9.4006 7.89401 9.62972 7.48438 9.92826C6.84564 10.4004 6.85258 11.0947 6.97061 11.7889C7.01227 12.0319 7.11641 12.2749 7.24138 12.4902C8.25503 14.2536 9.28257 16.0102 10.2962 17.7737C10.5809 18.2597 10.9905 18.5999 11.4973 18.8151C11.9764 19.0234 12.4555 19.0234 12.9137 18.7248C13.2539 18.5096 13.6149 18.3152 13.969 18.1139C15.1076 17.4612 16.2671 17.5515 17.2807 18.3846C17.5376 18.5929 17.7875 18.8151 17.9889 19.072C19.0373 20.4119 20.0093 21.7936 20.4883 23.4529C20.5925 23.807 20.6202 24.1888 20.6133 24.5568C20.5994 25.147 20.3009 25.5844 19.794 25.9037C18.4263 26.7785 16.9336 27.2298 15.3159 27.2992C15.2326 27.3062 15.1423 27.327 15.059 27.3478C15.0174 27.3478 14.9688 27.3478 14.9271 27.3478C14.8091 27.334 14.691 27.3062 14.573 27.3062C13.1289 27.2437 11.782 26.8479 10.5184 26.1676C8.35223 24.9942 6.70678 23.2654 5.45013 21.1826C4.22125 19.1483 3.04096 17.0863 1.86762 15.0243C1.13168 13.726 0.590141 12.3444 0.305484 10.8794C0.159685 10.1296 0.104143 9.35894 0 8.59523C0 8.48415 0 8.37306 0 8.26198C0.0208285 8.10923 0.048599 7.95649 0.0555419 7.81069C0.111085 6.71372 0.340199 5.65841 0.791483 4.65864C1.77042 2.49248 3.29091 0.867853 5.54733 0.00694114C5.68619 -1.69513e-06 5.8181 0 5.95001 0ZM14.9271 25.9037C16.3643 25.9037 17.7459 25.508 19.0164 24.7026C19.1206 24.6332 19.2247 24.4527 19.2108 24.3416C19.1692 24.0153 19.1067 23.689 18.9887 23.3835C18.4749 22.1338 17.7598 21.0021 16.8989 19.9676C16.7253 19.7593 16.5101 19.5719 16.3018 19.4052C15.8088 19.0164 15.302 18.9539 14.7466 19.308C14.3508 19.5649 13.9412 19.8079 13.5177 20.0093C13.1844 20.162 12.8234 20.3217 12.4624 20.3425C10.9975 20.4258 9.87966 19.794 9.12983 18.5513C8.05369 16.76 7.01227 14.9479 5.99167 13.1289C5.76255 12.7193 5.59593 12.2333 5.53344 11.7681C5.36681 10.5323 5.77644 9.15066 7.10947 8.49109C7.51909 8.2828 7.90789 8.03286 8.31058 7.79681C8.65078 7.59546 8.83823 7.29692 8.83823 6.90118C8.83823 6.65818 8.83129 6.40824 8.7688 6.18607C8.31058 4.63781 7.54686 3.24925 6.52627 1.99954C6.36658 1.80514 6.15135 1.65934 5.94307 1.52048C5.85975 1.46494 5.70007 1.45799 5.61676 1.50659C5.2835 1.67322 4.95024 1.84679 4.6517 2.06896C2.61051 3.5825 1.54825 5.61676 1.48577 8.15783C1.43023 10.1921 1.944 12.1222 2.90905 13.8857C4.19348 16.2254 5.56121 18.5235 6.92895 20.8146C7.50521 21.7797 8.25504 22.6267 9.08818 23.3835C10.7336 24.8901 12.6221 25.876 14.9271 25.9037ZM9.76857 8.2828C9.91437 8.38695 10.0393 8.4772 10.1643 8.56746C12.3444 10.2754 14.5244 11.9903 16.7045 13.6982C17.3571 14.212 17.7389 14.2189 18.3846 13.7121C21.4464 11.3099 24.5082 8.90072 27.5631 6.49849C27.6325 6.44295 27.695 6.38047 27.7922 6.29715C21.9185 6.29715 16.0935 6.29715 10.2337 6.29715C10.3032 7.01227 10.1851 7.67183 9.76857 8.2828Z" fill="#01A3DE"/>
</svg>
