<svg width="131" height="28" viewBox="0 0 131 28" fill="none" xmlns="http://www.w3.org/2000/svg">
<path fill-rule="evenodd" clip-rule="evenodd" d="M33.0955 0.119197C32.9505 0.176788 32.8008 0.303901 32.7629 0.40176C32.7249 0.499618 32.8803 1.15905 33.1082 1.86723C33.7006 3.70796 34.084 5.03691 34.1701 5.54823C34.2706 6.14421 34.6841 6.5392 35.2077 6.5392C35.6847 6.5392 35.9075 6.27649 36.0346 5.56406C36.1456 4.94238 36.538 3.41541 36.6033 3.35071C36.6323 3.32203 36.7301 3.32673 36.8206 3.36104C36.921 3.39912 37.0179 3.68226 37.0692 4.08815C37.1619 4.82261 37.5522 6.17175 37.7367 6.3958C37.8017 6.47473 38.0335 6.5392 38.252 6.5392C38.7465 6.5392 39.154 6.16291 39.324 5.54938C39.3917 5.30502 39.6088 4.51148 39.8065 3.78586C40.0042 3.06023 40.2922 2.07912 40.4466 1.60578C40.6009 1.13231 40.7272 0.662754 40.7272 0.562372C40.7272 0.299541 40.3499 0 40.0187 0C39.3543 0 39.0994 0.430899 38.7631 2.12237C38.4779 3.55641 38.0657 3.30172 37.8176 1.5382C37.7478 1.0426 37.6398 0.542983 37.5775 0.427802C37.3403 -0.0102103 36.3012 -0.107839 35.9777 0.277629C35.9053 0.363901 35.7428 0.96046 35.6168 1.60337C35.3861 2.77974 35.2338 3.21224 35.05 3.21224C34.9221 3.21224 34.8096 2.92119 34.8096 2.59021C34.8096 2.44773 34.7047 1.92562 34.5765 1.43002C34.2472 0.156826 33.8611 -0.184819 33.0955 0.119197ZM42.9758 0.258126C42.6755 0.597247 42.5085 0.943481 42.2428 1.7782C42.0397 2.41606 41.6133 3.59886 40.9485 5.36857C40.6402 6.18918 40.7093 6.4566 41.2461 6.51947C41.8546 6.59071 42.1188 6.44548 42.3497 5.9127C42.6679 5.17871 42.7552 5.15197 44.4672 5.26406C44.5844 5.27175 44.788 5.5106 44.955 5.83653C45.1127 6.14421 45.3267 6.42815 45.4305 6.4675C45.7481 6.58796 46.2407 6.54769 46.4691 6.38249C46.6759 6.23301 46.6772 6.1971 46.4975 5.60811C46.3938 5.26842 46.0684 4.31932 45.7742 3.49905C44.5254 0.0160611 44.5159 0 43.7062 0C43.3308 0 43.1467 0.0650479 42.9758 0.258126ZM46.4418 0.174264C46.1126 0.404972 46.0955 0.948299 46.4079 1.25713C46.5946 1.44172 46.7365 1.46983 47.2035 1.41511C48.0924 1.31105 48.1206 1.39446 48.0634 3.96173C48.021 5.87289 48.0372 6.11955 48.2186 6.31779C48.4663 6.58842 49.0474 6.60735 49.4095 6.35668C49.6695 6.17657 49.6729 6.14387 49.6539 3.92696C49.6362 1.85472 49.6516 1.66738 49.8512 1.5195C49.9864 1.41947 50.2314 1.38 50.5033 1.41442C51.1248 1.49323 51.3636 1.40134 51.5224 1.0223C51.6384 0.745699 51.6297 0.641301 51.4713 0.402218L51.2808 0.114723L49.2239 0.113117C48.0925 0.112314 47.0625 0.0845508 46.9349 0.0513958C46.8073 0.0183557 46.5854 0.0736521 46.4418 0.174264ZM70.5555 0.0859274C69.4813 0.106922 68.7039 0.171167 68.612 0.246539C68.4925 0.344628 68.4588 1.01117 68.4588 3.27717C68.4588 6.14892 68.4617 6.18402 68.7168 6.36058C69.0661 6.60253 69.6556 6.58693 69.8912 6.32938C70.0386 6.16842 70.0833 5.8901 70.0833 5.13305C70.0833 3.8166 70.1398 3.76234 71.4101 3.85893C72.2918 3.92593 72.3928 3.91159 72.6201 3.68685C72.7564 3.55205 72.868 3.31561 72.868 3.16142C72.868 2.68922 72.4748 2.5239 71.3517 2.5239C70.5055 2.5239 70.3196 2.48926 70.1455 2.29905C69.8612 1.98838 69.9905 1.51882 70.3876 1.42027C70.553 1.3792 71.1491 1.38 71.7123 1.42199C72.6723 1.49369 72.7513 1.48256 72.9762 1.24383C73.1082 1.10386 73.2161 0.869944 73.2161 0.724016C73.2161 0.399695 72.8257 -0.00917784 72.5489 0.0254685C72.4373 0.0394647 71.5402 0.066654 70.5555 0.0859274ZM74.762 0.0777821C74.2659 0.177362 74.2449 0.309867 74.2538 3.29037C74.2619 6.03878 74.2707 6.14467 74.5063 6.33844C74.8262 6.60173 75.4479 6.59691 75.6928 6.32938C75.8607 6.14593 75.8848 5.75897 75.8848 3.24597C75.8848 1.08012 75.849 0.342792 75.7391 0.252735C75.55 0.0973997 75.0817 0.013652 74.762 0.0777821ZM77.7488 0.163251C77.5345 0.418624 77.5313 6.11702 77.7454 6.37205C77.8581 6.50616 78.2672 6.5392 79.8183 6.5392C81.9812 6.5392 82.2666 6.45913 82.2666 5.85259C82.2666 5.25924 82.0399 5.16253 80.6481 5.16253C79.6229 5.16253 79.3652 5.12788 79.2349 4.97266C79.1095 4.82306 79.0836 4.33102 79.1129 2.64952C79.1549 0.236214 79.127 0.138126 78.3706 0.0378585C78.0263 -0.00780116 77.8651 0.0246654 77.7488 0.163251ZM83.543 0.116788C82.4261 0.154761 81.4977 0.195717 81.4797 0.207648C81.3392 0.301148 81.2698 0.784131 81.3694 0.975144C81.5476 1.31667 81.6852 1.373 82.3454 1.37495C82.9377 1.37667 83.305 1.56493 83.3155 1.87239C83.3181 1.94685 83.3161 2.97281 83.3111 4.15239C83.3027 6.17439 83.3152 6.30391 83.5309 6.41817C83.9096 6.61848 84.4408 6.56353 84.6239 6.30505C84.7586 6.11496 84.7799 5.65274 84.737 3.84758C84.6766 1.29992 84.6511 1.36348 85.7148 1.40926C86.4132 1.4392 86.6758 1.25794 86.6758 0.745699C86.6758 0.0649331 86.4429 0.0181262 83.543 0.116788ZM52.69 0.219924C52.4342 0.380077 52.5009 6.05232 52.7619 6.33752C52.9247 6.51546 53.188 6.5392 54.9949 6.5392C57.263 6.5392 57.4427 6.49114 57.4604 5.88001C57.4796 5.20762 57.3294 5.14601 55.738 5.17354C54.111 5.20176 53.9548 5.1405 53.9548 4.47419C53.9548 3.83622 54.1274 3.75626 55.4614 3.77702C56.8401 3.79847 57.0877 3.70348 57.0877 3.1535C57.0877 2.52539 56.7673 2.39128 55.3419 2.42272C54.2996 2.44566 54.1358 2.42283 53.9969 2.23503C53.7866 1.95052 53.796 1.8779 54.0798 1.59729C54.2939 1.38562 54.4467 1.36107 55.4432 1.37828C56.0605 1.38884 56.6793 1.39285 56.8184 1.38711C57.1538 1.37323 57.4358 1.08035 57.4358 0.745699C57.4358 0.163136 57.2449 0.114608 54.9619 0.116444C53.8017 0.117476 52.7794 0.164054 52.69 0.219924ZM59.0503 0.228069C58.8902 0.32065 58.8651 0.714035 58.8575 3.2361C58.8478 6.46257 58.8648 6.5392 59.5921 6.5392C60.2005 6.5392 60.3366 6.30838 60.3366 5.27725C60.3366 4.28111 60.5113 3.94234 60.963 4.06222C61.0972 4.09779 61.4031 4.12761 61.6431 4.12842C62.2907 4.13083 62.4832 4.41706 62.4832 5.37809C62.4832 6.29209 62.6326 6.5392 63.1853 6.5392C63.8125 6.5392 63.9342 6.31767 63.9295 5.18306C63.9268 4.53695 63.8671 4.08666 63.7595 3.90058C63.5402 3.5213 63.5432 3.16027 63.7672 2.97649C63.8671 2.89446 64.0284 2.67545 64.1255 2.4896C64.4079 1.94972 64.2416 1.44941 63.5428 0.736062L62.9342 0.114723L61.0842 0.118165C60.0668 0.120115 59.1514 0.16956 59.0503 0.228069ZM87.8211 0.230937C87.6534 0.327763 87.6337 0.6748 87.647 3.29289L87.6621 6.24563L87.9522 6.39075C88.1522 6.49079 88.8636 6.53634 90.2438 6.53748C92.092 6.53909 92.2631 6.52165 92.4774 6.30976C92.7655 6.0249 92.7761 5.60192 92.5013 5.35595C92.3363 5.20842 91.9813 5.16299 90.7898 5.1374L89.2865 5.10517L89.1769 4.66601C88.9918 3.92524 89.1133 3.85182 90.6331 3.78586C91.3603 3.75431 92.0206 3.68673 92.1003 3.63568C92.1801 3.58463 92.2453 3.36815 92.2453 3.15465C92.2453 2.54731 91.9413 2.40918 90.6045 2.40918C89.2459 2.40918 89.1125 2.36742 89.1125 1.94203C89.1125 1.46409 89.3882 1.37667 90.8951 1.37667C91.9528 1.37667 92.2665 1.33939 92.4112 1.19644C92.6422 0.967917 92.6428 0.694303 92.4128 0.369752C92.2372 0.121836 92.1731 0.114838 90.1212 0.118165C88.9601 0.120115 87.9251 0.170822 87.8211 0.230937ZM94.009 0.25239C93.9081 0.352199 93.8698 1.18405 93.8698 3.27476C93.8698 5.92372 93.8871 6.17496 94.082 6.34934C94.2997 6.54414 94.8723 6.60161 95.0997 6.45144C95.3983 6.25435 95.5041 5.83664 95.4268 5.16081C95.3225 4.24945 95.4302 4.13002 96.3565 4.13002C97.3887 4.13002 97.532 4.26666 97.4959 5.21633C97.4703 5.89068 97.4992 6.00804 97.7518 6.25779C98.0807 6.58291 98.6334 6.63133 98.9089 6.35897C99.1984 6.07263 99.1634 4.2974 98.8592 3.84322C98.5619 3.39947 98.5677 3.30907 98.9172 2.93633C99.1586 2.67866 99.2073 2.513 99.2073 1.94834C99.2073 1.35109 99.1636 1.22077 98.842 0.858586C98.2261 0.165086 98.033 0.114723 95.9874 0.114723C94.7116 0.114723 94.1056 0.156941 94.009 0.25239ZM62.3515 1.6145C62.997 2.11641 62.5471 2.68325 61.4158 2.79339C60.5575 2.87691 60.3366 2.73075 60.3366 2.07981C60.3366 1.49128 60.4986 1.37667 61.3304 1.37667C61.8784 1.37667 62.1173 1.43232 62.3515 1.6145ZM97.5743 1.65591C97.8882 1.93675 97.8779 2.12788 97.53 2.4717C97.2831 2.71583 97.1396 2.75335 96.4509 2.75335C95.988 2.75335 95.5987 2.69599 95.5174 2.61568C95.2998 2.40046 95.3431 1.63882 95.5813 1.49415C95.9136 1.29235 97.2931 1.40421 97.5743 1.65591ZM44.0474 2.91935C44.2785 3.64383 44.1687 3.90058 43.628 3.90058C43.1751 3.90058 42.9856 3.64096 43.1467 3.24104C43.2165 3.06746 43.326 2.78341 43.3899 2.60995C43.5754 2.10666 43.8259 2.22459 44.0474 2.91935ZM48.3168 11.3002C48.2034 11.3874 48.1589 12.143 48.1322 14.4425C48.1079 16.5287 48.0546 17.5274 47.9607 17.6544C47.8713 17.7754 47.5788 17.8583 47.1079 17.8963L46.3912 17.9541L45.6511 19.3308C44.9186 20.6936 44.7803 21.1344 45.0365 21.291C45.1091 21.3354 45.7439 21.3646 46.4471 21.356C47.2709 21.3459 47.7834 21.3878 47.8882 21.4737C48.0214 21.583 48.0466 22.1553 48.0275 24.6248C48.0096 26.9186 48.0392 27.6845 48.1508 27.8174C48.2799 27.9713 49.2924 27.9919 56.5507 27.9884C62.8112 27.9853 64.861 27.9506 65.0407 27.845C65.621 27.5037 66.0545 27.1021 66.3738 26.6101L66.7183 26.0794V23.2455C66.7183 20.6158 66.7012 20.3783 66.4807 19.951L66.2431 19.4904L66.4899 19.0955C66.7267 18.7167 66.7352 18.5897 66.6983 15.9756C66.6625 13.4368 66.6426 13.2186 66.4074 12.7838C66.0731 12.1656 65.3302 11.5155 64.782 11.3614C64.1902 11.1949 48.5296 11.1367 48.3168 11.3002ZM0.354477 11.5477C0.184259 11.7617 0.138542 11.9241 0.200967 12.0926C0.315955 12.4023 0.248888 17.6868 0.109186 19.3308C0.0502418 20.0249 0.00150841 22.1957 0.00104429 24.1548L0 27.7168L0.385342 27.8546C0.926515 28.0481 3.25922 28.0368 3.53236 27.8393C3.73217 27.6948 3.74319 27.4033 3.72764 22.6481C3.70583 15.988 3.59792 11.565 3.45288 11.3862C3.37165 11.2861 2.92319 11.2428 1.96674 11.2428C0.622279 11.2428 0.592575 11.2485 0.354477 11.5477ZM7.60009 11.4604C6.88452 11.7879 6.51507 12.2486 6.38976 12.9697C6.2272 13.904 6.16037 26.0103 6.3148 26.5339C6.4805 27.0961 7.10254 27.727 7.6349 27.8732C8.22794 28.0361 24.4147 28.0364 24.7224 27.8736C24.9264 27.7657 24.9469 27.6208 24.9469 26.2853C24.9469 25.0073 24.9192 24.7909 24.7346 24.6258C24.5421 24.4535 23.8708 24.436 17.4881 24.436C12.5362 24.436 10.3692 24.3979 10.1681 24.3073C10.011 24.2365 9.85262 24.0687 9.81607 23.9344C9.77963 23.8002 9.74911 21.7414 9.7483 19.3595C9.74668 15.1704 9.75434 15.0211 9.98037 14.7976C10.2096 14.571 10.3485 14.5666 17.3301 14.5715C21.2438 14.5743 24.5326 14.5436 24.6384 14.5035C24.7443 14.4633 24.838 14.3716 24.8467 14.2994C24.9024 13.8382 24.7865 11.6087 24.6981 11.4436C24.5973 11.2552 24.0803 11.243 16.3274 11.2454C8.53194 11.2478 8.03799 11.2599 7.60009 11.4604ZM28.0985 11.5418C27.6499 11.7629 27.4249 11.9648 27.2356 12.3162C27.0014 12.751 26.9745 12.9994 26.9204 15.2203C26.888 16.556 26.827 17.6827 26.7851 17.724C26.7433 17.7652 26.4119 17.8388 26.0488 17.8875C25.6859 17.9362 25.3424 18.0485 25.2857 18.1372C25.2289 18.2258 25.1817 18.8969 25.1807 19.6285C25.1787 21.1702 25.2677 21.3385 26.0847 21.3385C26.877 21.3385 26.9293 21.5086 26.8566 23.8552C26.8082 25.4187 26.832 25.966 26.9686 26.4307C27.1653 27.0994 27.6865 27.6599 28.3001 27.8623C28.5793 27.9544 31.1062 27.9924 36.9555 27.9924C44.8113 27.9924 45.2259 27.9821 45.4085 27.7826C45.5641 27.6125 45.6005 27.3187 45.6005 26.2338C45.6005 25.0478 45.5741 24.8687 45.3685 24.6654C45.1414 24.4409 44.9817 24.436 38.0206 24.436H30.905L30.6607 24.1778C30.4519 23.9571 30.4122 23.7558 30.3864 22.7868C30.3599 21.7798 30.3814 21.6359 30.5806 21.4918C30.7669 21.3572 31.7326 21.3323 36.2967 21.3442C41.3672 21.3574 41.8061 21.3432 42.0122 21.1586C42.2086 20.9829 42.2356 20.7955 42.2356 19.608C42.2356 18.5331 42.1984 18.2205 42.0533 18.077C41.8926 17.9182 41.213 17.8968 36.3355 17.8968C31.5133 17.8968 30.7669 17.8737 30.5423 17.7181C30.3065 17.555 30.2843 17.4459 30.2843 16.4506C30.2843 15.3192 30.441 14.7817 30.8117 14.641C30.915 14.6019 34.1576 14.5698 38.0176 14.5698C42.6334 14.5698 45.1125 14.5292 45.2601 14.4511C45.4615 14.3445 45.4845 14.2003 45.4845 13.0425C45.4845 12.0609 45.4413 11.6919 45.3038 11.4979L45.1233 11.2428H36.9144H28.7055L28.0985 11.5418ZM71.6449 11.4585C71.0105 11.7434 70.5936 12.2657 70.4417 12.966C70.3722 13.2864 70.3153 14.4466 70.3153 15.5441C70.3153 17.4761 70.3071 17.5453 70.0574 17.7181C69.9156 17.8163 69.625 17.8968 69.4117 17.8968C68.6133 17.8968 68.5748 17.9726 68.5748 19.5465C68.5748 21.1736 68.6571 21.3385 69.469 21.3385C69.7302 21.3385 69.9987 21.4098 70.0736 21.4991C70.1646 21.6075 70.2163 22.4365 70.2328 24.0517C70.2603 26.7408 70.2984 26.8842 71.1672 27.5787L71.6131 27.935L80.0894 27.9666C87.8925 27.9957 88.5827 27.9829 88.781 27.8054C88.9673 27.6387 88.9965 27.4326 88.9965 26.2793C88.9965 25.2582 88.9541 24.8863 88.8158 24.691L88.6353 24.436H81.5123H74.3894L74.098 24.1778C73.8304 23.9409 73.8038 23.8292 73.774 22.8168C73.7506 22.0172 73.7849 21.6623 73.8992 21.5261C74.0411 21.3572 74.6138 21.3385 79.6635 21.3385H85.2703L85.4509 21.0834C85.5881 20.8898 85.6315 20.5217 85.6315 19.5525C85.6315 18.462 85.6007 18.2489 85.4193 18.0866C85.2282 17.9156 84.6617 17.8968 79.7016 17.8968C74.9064 17.8968 74.1627 17.8737 73.9382 17.7181C73.7008 17.5539 73.6802 17.4479 73.6802 16.39C73.6802 15.2705 73.6892 15.2316 74.0218 14.9027L74.3634 14.565L81.3879 14.5724C86.3157 14.5777 88.4841 14.542 88.6524 14.4529C88.8776 14.3338 88.8903 14.242 88.8573 12.9739C88.8331 12.0411 88.7729 11.5631 88.663 11.4324C88.5178 11.2594 87.7894 11.2431 80.3089 11.2454C72.609 11.2478 72.0855 11.2606 71.6449 11.4585ZM91.4312 11.5349C91.3676 11.7002 91.3171 13.0934 91.3171 14.6838C91.3171 17.9673 91.3387 17.8956 90.3516 17.8985C90.021 17.8995 89.6964 17.9382 89.63 17.9845C89.5636 18.0309 89.3081 18.4819 89.0621 18.9866C88.8163 19.4914 88.492 20.0842 88.3416 20.3039C88.022 20.7709 87.9898 21.1689 88.2594 21.3181C88.3647 21.3763 89.0053 21.398 89.683 21.3662C90.7459 21.3164 90.9379 21.3352 91.0787 21.503C91.2115 21.6612 91.2366 22.2505 91.2129 24.6604L91.1838 27.6232L91.4503 27.8078C91.6585 27.952 92.0149 27.9924 93.0789 27.9924C95.0208 27.9924 94.8901 28.248 94.8211 24.5879C94.7693 21.833 94.7793 21.6358 94.9781 21.492C95.1463 21.3705 96.0657 21.3385 99.3906 21.3385C103.227 21.3385 103.61 21.3559 103.818 21.5392C104.065 21.7572 104.409 22.7385 105.179 25.4164C105.712 27.2738 105.938 27.8093 106.232 27.9211C106.336 27.9603 107.117 27.9924 107.969 27.9924C110.033 27.9924 110.159 27.8677 109.474 26.501C109.332 26.217 109.178 25.8557 109.131 25.6979C109.084 25.5402 108.926 25.1272 108.78 24.7801C108.634 24.4331 108.298 23.5889 108.034 22.9041C107.495 21.509 107.498 21.4891 108.308 21.088C108.934 20.778 109.387 20.349 109.677 19.7923C109.899 19.364 109.913 19.1532 109.895 16.3506L109.876 13.3652L109.56 12.736C109.338 12.293 109.073 11.9874 108.668 11.7035L108.091 11.3002L99.8182 11.2693L91.5451 11.2384L91.4312 11.5349ZM113.627 11.4326C113.358 11.5269 112.986 11.7433 112.802 11.9133C112.349 12.3316 112.334 12.5362 112.205 19.5879C112.082 26.3354 112.106 26.6579 112.773 27.3201C113.005 27.5498 113.402 27.7947 113.656 27.8645C114.337 28.0512 130.09 28.0422 130.615 27.8546L131 27.7168V22.9354V18.1541L130.623 17.9978C130.223 17.8322 127.663 17.8342 127.488 18.0002C127.438 18.0471 127.377 19.439 127.352 21.0936C127.32 23.2172 127.266 24.1511 127.167 24.2689C127.048 24.4108 126.21 24.436 121.607 24.436H116.188L115.936 24.1705C115.686 23.9072 115.684 23.8669 115.684 19.4159V14.9269L115.945 14.746C116.176 14.586 117.011 14.566 123.203 14.5726C130.851 14.5807 131 14.5695 131 13.9827C131 13.8114 130.948 13.654 130.885 13.6329C130.821 13.6119 130.753 13.1471 130.733 12.6C130.71 11.9986 130.636 11.5338 130.544 11.4241C130.407 11.2619 129.537 11.2438 122.254 11.2519C115.344 11.2596 114.043 11.2868 113.627 11.4326ZM62.9025 14.7867C63.1345 14.9725 63.1801 15.13 63.2182 15.8776C63.2812 17.1115 63.1842 17.5145 62.7738 17.7245C62.2553 17.9895 51.9692 17.9821 51.7004 17.7165C51.5607 17.5783 51.5149 17.2636 51.5045 16.3685C51.4968 15.7262 51.5004 15.1233 51.5125 15.0287C51.5689 14.5829 51.7334 14.5698 57.271 14.5698C62.3561 14.5698 62.6454 14.5809 62.9025 14.7867ZM106.178 14.9051C106.501 15.2241 106.517 15.289 106.517 16.2333C106.517 17.1776 106.501 17.2425 106.178 17.5614L105.839 17.8968H100.493C95.424 17.8968 95.1349 17.8856 94.9291 17.6821C94.7443 17.4995 94.7095 17.2699 94.695 16.1401C94.6803 14.9814 94.7042 14.7979 94.8831 14.6949C95.0154 14.6187 96.9965 14.5755 100.464 14.5732L105.839 14.5698L106.178 14.9051ZM62.9054 21.5587C63.1639 21.7665 63.1777 21.8425 63.1495 22.9067C63.1235 23.8924 63.0891 24.0597 62.8757 24.2352C62.6508 24.42 62.2077 24.4359 57.2779 24.4343C54.3334 24.4332 51.8513 24.3868 51.7621 24.3309C51.5233 24.1814 51.4844 21.7324 51.7172 21.5023C51.8559 21.3651 52.7547 21.3385 57.2572 21.3385C62.3842 21.3385 62.6441 21.3486 62.9054 21.5587Z" fill="url(#paint0_linear_212_2350)"/>
<defs>
<linearGradient id="paint0_linear_212_2350" x1="65.5" y1="0" x2="65.5" y2="28" gradientUnits="userSpaceOnUse">
<stop stop-color="#003299"/>
<stop offset="0.522515" stop-color="#00BAF0"/>
<stop offset="1" stop-color="#004F9B"/>
</linearGradient>
</defs>
</svg>
