<svg width="30" height="30" viewBox="0 0 30 30" fill="none" xmlns="http://www.w3.org/2000/svg">
<path d="M0 25.2539C0.046875 25.0664 0.0878906 24.8789 0.140625 24.6914C0.363281 23.8652 0.796875 23.1797 1.42969 22.6055C4.25391 20.0508 7.07227 17.4961 9.89648 14.9473C11.4141 13.5703 12.9316 12.1934 14.4609 10.8281C14.625 10.6816 14.6543 10.5645 14.584 10.3535C13.0781 5.71289 16.0312 0.890625 20.8477 0.105469C21.0469 0.0703125 21.2461 0.0351562 21.4453 0C21.873 0 22.3066 0 22.7344 0C23.1328 0.0703125 23.5371 0.146484 23.9355 0.216797C24.3281 0.287109 24.6328 0.46875 24.75 0.873047C24.8672 1.27734 24.6855 1.58203 24.4043 1.86328C23.4551 2.80664 22.5117 3.75586 21.5625 4.69336C21.4395 4.81641 21.3926 4.92188 21.4336 5.09766C21.6211 5.99414 21.791 6.89648 21.9844 7.79297C22.002 7.88086 22.1133 7.99219 22.2012 8.00977C23.0977 8.20312 24 8.36719 24.8965 8.56055C25.0781 8.5957 25.1777 8.55469 25.3008 8.43164C26.2559 7.46484 27.2168 6.50977 28.1777 5.54883C28.4473 5.2793 28.7461 5.13867 29.127 5.24414C29.5078 5.34961 29.7012 5.63086 29.7715 6C29.8535 6.42188 29.9238 6.84375 30.0059 7.25977C30.0059 7.6875 30.0059 8.12109 30.0059 8.54883C29.8887 9.11133 29.8066 9.67969 29.6426 10.2246C28.7402 13.2715 25.9922 15.4922 22.8223 15.7676C21.7441 15.8613 20.6953 15.7559 19.6758 15.416C19.4414 15.3398 19.3125 15.3809 19.1543 15.5566C16.1074 18.9316 13.0547 22.3066 10.0078 25.6758C9.15234 26.625 8.29102 27.5684 7.43555 28.5176C6.73828 29.2969 5.88867 29.7891 4.85156 29.9414C4.81641 29.9473 4.78125 29.9707 4.75195 29.9883C4.41797 29.9883 4.08984 29.9883 3.75586 29.9883C3.70312 29.9707 3.64453 29.9473 3.5918 29.9355C1.82227 29.625 0.685547 28.5938 0.152344 26.8945C0.09375 26.7012 0.0527344 26.502 0 26.3086C0 25.957 0 25.6055 0 25.2539ZM22.0195 1.76953C21.8496 1.76953 21.7617 1.76367 21.6797 1.76953C17.4434 2.08008 14.7891 6.42187 16.4473 10.3359C16.6992 10.9336 16.6406 11.2207 16.1602 11.6543C12.9258 14.584 9.68555 17.5137 6.45117 20.4375C5.15625 21.6094 3.84961 22.7754 2.56641 23.959C1.85156 24.6152 1.60547 25.4473 1.83984 26.3848C2.06836 27.2871 2.6543 27.8906 3.55664 28.1426C4.61719 28.4355 5.47852 28.0781 6.20508 27.2754C10.2422 22.8047 14.2852 18.3398 18.3281 13.8691C18.7969 13.3535 19.0488 13.3008 19.6934 13.5645C22.9512 14.9238 26.6484 13.3301 27.8613 10.0371C28.0957 9.39844 28.2305 8.74219 28.2363 7.99805C28.1133 8.10938 28.0371 8.17969 27.9609 8.25586C27.3457 8.87109 26.7246 9.48047 26.1211 10.1016C25.834 10.3945 25.5117 10.4824 25.1133 10.4004C23.8125 10.1309 22.5117 9.87305 21.2109 9.61523C20.7188 9.51562 20.4902 9.29297 20.3906 8.79492C20.1621 7.6582 19.9746 6.50977 19.6875 5.38477C19.4824 4.59375 19.6465 4.02539 20.2676 3.49805C20.8711 2.98828 21.3984 2.38477 22.0195 1.76953Z" fill="#01A3DE"/>
</svg>
