<svg width="1920" height="1274" viewBox="0 0 1920 1274" fill="none" xmlns="http://www.w3.org/2000/svg">
<path d="M1182.34 17.6281C746.428 -40.3863 420.497 45.6139 14.5821 263.507C-284.688 452.081 -703.666 722.882 14.5821 297.491C912.393 -234.248 1566.26 243.517 1054.36 307.486C355.606 394.806 84.5676 449.415 278.526 589.347C361.728 649.372 634.452 715.818 1012.37 713.286C1338.45 711.101 1280.32 867.21 1182.34 843.222C1084.36 819.234 -79.398 449.415 -11.4124 959.165C56.5733 1468.91 1776.21 1217.04 1948.17 1173.06C2120.14 1129.08 2849.98 889.2 1948.17 1135.08C1046.36 1380.96 560.467 1061.11 542.471 919.185C534.927 859.69 602.458 805.241 788.419 787.249C974.38 769.258 1182.34 913.188 1444.28 889.199C1706.23 865.211 1854.19 689.298 1718.22 621.331C1582.25 553.364 1224.33 629.327 1012.37 677.303C800.416 725.28 516.476 669.307 508.478 529.376C500.48 389.445 896.396 377.451 1084.36 333.473C1272.32 289.495 1828.2 103.585 1182.34 17.6281Z" fill="#E9F7FF"/>
</svg>
